<svg width="200" height="200" viewBox="0 0 200 200" fill="none" xmlns="http://www.w3.org/2000/svg">
<path d="M118.219 53.1115L46.9276 95.4512L33.9753 102.961L14.8191 108.73L8.17969 113.193V127.451L23.7442 141.709L30.9278 153.791L68.3696 151.505L79.4715 141.709L139.661 148.457L156.532 133.328L189.076 130.172L173.511 108.73L191.361 90.5533L165.892 77.1657L169.92 46.3633L144.124 59.3155L118.219 53.1115Z" fill="#21211E"/>
<path d="M177.438 121.786L143.947 114.768C142.439 114.449 140.902 115.425 140.587 116.964C140.265 118.497 141.247 120.002 142.783 120.324L147.851 121.385C147.758 121.591 147.643 121.785 147.603 122.017C146.393 128.835 143.673 133.354 140.313 134.117C139.958 134.197 139.626 134.167 139.226 134.234L138.633 134.195C132.207 133.532 123.069 121.821 118.889 103.368C114.752 85.1101 117.891 70.6169 123.305 67.1252L123.935 66.7703C124.289 66.6014 124.627 66.4824 124.976 66.4041C128.308 65.6309 132.737 68.5458 136.763 74.183C136.841 74.2919 136.957 74.3508 137.045 74.4449L133.603 76.9188C132.334 77.8372 132.04 79.607 132.955 80.8836C133.509 81.6545 134.38 82.065 135.261 82.065C135.838 82.065 136.413 81.8915 136.919 81.5298L164.706 61.5574C165.976 60.6424 166.27 58.8703 165.355 57.5961C164.435 56.3229 162.66 56.036 161.39 56.951L141.538 71.2183C141.479 71.1084 141.462 70.9859 141.387 70.8804C135.827 63.1016 129.572 59.5437 123.724 60.8681C122.97 61.0404 122.216 61.3035 121.052 61.8851L120.448 62.2252C120.438 62.2298 120.429 62.2298 120.419 62.2354L45.962 103.654L29.9668 107.276C25.8534 108.207 22.3432 110.694 20.0813 114.278C17.8183 117.859 17.0926 122.098 18.0246 126.218C19.4895 132.718 24.8057 137.337 31.0256 138.322C31.5959 140.396 32.775 142.238 34.4961 143.586C36.292 144.993 38.4609 145.737 40.7048 145.737C41.1141 145.737 41.5302 145.712 41.9519 145.662L66.4856 142.691C70.4301 142.227 73.5807 139.524 74.8076 135.903L138.16 139.854C138.221 139.857 138.282 139.858 138.337 139.858C138.351 139.858 138.363 139.852 138.377 139.85C138.666 139.878 138.956 139.921 139.251 139.911C140.034 139.911 140.815 139.824 141.569 139.652C147.395 138.332 151.526 132.419 153.189 123.004C153.22 122.831 153.178 122.67 153.176 122.502L176.275 127.342C176.469 127.384 176.668 127.403 176.863 127.403C178.176 127.403 179.359 126.485 179.634 125.147C179.959 123.615 178.977 122.11 177.44 121.789L177.438 121.786ZM113.233 72.842C112.652 74.6946 112.224 76.74 111.902 78.9032C111.805 79.5517 111.766 80.249 111.693 80.9224C111.519 82.5335 111.402 84.1865 111.368 85.9225C111.352 86.7695 111.355 87.6198 111.372 88.4928C111.406 90.2513 111.522 92.0541 111.698 93.9033C111.776 94.7321 111.828 95.5348 111.933 96.3783C112.273 99.071 112.717 101.814 113.354 104.622C113.853 106.829 114.446 108.944 115.082 111.008C115.216 111.443 115.345 111.875 115.485 112.302C116.126 114.273 116.813 116.174 117.562 117.982C117.699 118.312 117.845 118.618 117.985 118.941C118.65 120.486 119.353 121.959 120.089 123.364C120.282 123.738 120.468 124.123 120.667 124.485C121.474 125.951 122.319 127.322 123.191 128.609C123.509 129.081 123.832 129.517 124.158 129.962C124.839 130.89 125.533 131.756 126.243 132.567C126.49 132.852 126.722 133.197 126.974 133.466L54.2178 128.933C47.2293 120.083 48.659 111.09 49.3937 108.242L113.262 72.7129C113.249 72.7526 113.244 72.8025 113.233 72.8433L113.233 72.842ZM23.5581 124.964C22.9651 122.325 23.4311 119.605 24.8823 117.307C26.3358 115.005 28.5864 113.409 31.2201 112.813L43.297 110.076C42.7131 114.731 42.9376 122.225 47.8617 129.868L35.7123 132.622C30.2272 133.857 24.7996 130.426 23.5582 124.964L23.5581 124.964ZM65.8092 137.054L41.2663 140.028C40.1076 140.166 38.9273 139.851 38.001 139.119C37.6461 138.842 37.391 138.482 37.1416 138.123L52.9421 134.542L68.6255 135.52C67.9271 136.343 66.9532 136.92 65.8092 137.054V137.054Z" fill="#444444"/>
<path d="M136.53 98.9719C136.813 100.308 137.993 101.224 139.301 101.224C139.501 101.224 139.695 101.204 139.894 101.162L173.026 94.1567C174.562 93.8313 175.537 92.3245 175.215 90.7916C174.893 89.2519 173.368 88.2882 171.85 88.6022L138.718 95.6079C137.184 95.931 136.208 97.439 136.53 98.9719L136.53 98.9719Z" fill="#444444"/>
</svg>
