<svg width="16" height="16" viewBox="0 0 16 16" fill="none" xmlns="http://www.w3.org/2000/svg">
<path d="M8 0L8.41869 0.0109639L8.83623 0.0438247L9.25148 0.0984931L9.66329 0.174819L10.0706 0.272593L10.4721 0.391548L10.8669 0.531357L11.2539 0.691637L11.6319 0.871948L12 1.0718L12.3571 1.29064L12.7023 1.52786L13.0346 1.78283L13.353 2.05484L13.6569 2.34315L13.9452 2.64696L14.2172 2.96544L14.4721 3.29772L14.7094 3.64289L14.9282 4L15.1281 4.36808L15.3084 4.74611L15.4686 5.13306L15.6085 5.52786L15.7274 5.92945L15.8252 6.33671L15.9015 6.74852L15.9562 7.16377L15.989 7.58131L16 8L15.989 8.41869L15.9562 8.83623L15.9015 9.25148L15.8252 9.66329L15.7274 10.0706L15.6085 10.4721L15.4686 10.8669L15.3084 11.2539L15.1281 11.6319L14.9282 12L14.7094 12.3571L14.4721 12.7023L14.2172 13.0346L13.9452 13.353L13.6569 13.6569L13.353 13.9452L13.0346 14.2172L12.7023 14.4721L12.3571 14.7094L12 14.9282L11.6319 15.1281L11.2539 15.3084L10.8669 15.4686L10.4721 15.6085L10.0706 15.7274L9.66329 15.8252L9.25148 15.9015L8.83623 15.9562L8.41869 15.989L8 16L7.58131 15.989L7.16377 15.9562L6.74852 15.9015L6.33671 15.8252L5.92945 15.7274L5.52786 15.6085L5.13306 15.4686L4.74611 15.3084L4.36808 15.1281L4 14.9282L3.64289 14.7094L3.29772 14.4721L2.96544 14.2172L2.64696 13.9452L2.34315 13.6569L2.05484 13.353L1.78283 13.0346L1.52786 12.7023L1.29064 12.3571L1.0718 12L0.871948 11.6319L0.691637 11.2539L0.531357 10.8669L0.391548 10.4721L0.272593 10.0706L0.174819 9.66329L0.0984931 9.25148L0.0438247 8.83623L0.0109639 8.41869L0 8L0.0109639 7.58131L0.0438247 7.16377L0.0984931 6.74852L0.174819 6.33671L0.272593 5.92945L0.391548 5.52786L0.531357 5.13306L0.691637 4.74611L0.871948 4.36808L1.0718 4L1.29064 3.64289L1.52786 3.29772L1.78283 2.96544L2.05484 2.64696L2.34315 2.34315L2.64696 2.05484L2.96544 1.78283L3.29772 1.52786L3.64289 1.29064L4 1.0718L4.36808 0.871948L4.74611 0.691637L5.13306 0.531357L5.52786 0.391548L5.92945 0.272593L6.33671 0.174819L6.74852 0.0984931L7.16377 0.0438247L7.58131 0.0109639L8 0Z" fill="#B9FF38"/>
</svg>
