<svg width="51" height="50" viewBox="0 0 51 50" fill="none" xmlns="http://www.w3.org/2000/svg">
<g filter="url(#filter0_d_5901_18291)">
<rect x="0.5" width="48" height="48" rx="24" fill="#F2F2F2" shape-rendering="crispEdges"/>
<g clip-path="url(#clip0_5901_18291)">
<path d="M40.5 24C40.5 15.1634 33.3366 8 24.5 8C15.6634 8 8.5 15.1634 8.5 24C8.5 31.9859 14.3509 38.6053 22 39.8056V28.625H17.9375V24H22V20.475C22 16.465 24.3888 14.25 28.0434 14.25C29.7934 14.25 31.625 14.5625 31.625 14.5625V18.5H29.6075C27.62 18.5 27 19.7334 27 21V24H31.4375L30.7281 28.625H27V39.8056C34.6491 38.6053 40.5 31.9859 40.5 24Z" fill="#050401"/>
</g>
<rect x="2" y="1.5" width="45" height="45" rx="22.5" stroke="#161615" stroke-width="3" shape-rendering="crispEdges"/>
</g>
<defs>
<filter id="filter0_d_5901_18291" x="0.5" y="0" width="50" height="50" filterUnits="userSpaceOnUse" color-interpolation-filters="sRGB">
<feFlood flood-opacity="0" result="BackgroundImageFix"/>
<feColorMatrix in="SourceAlpha" type="matrix" values="0 0 0 0 0 0 0 0 0 0 0 0 0 0 0 0 0 0 127 0" result="hardAlpha"/>
<feOffset dx="2" dy="2"/>
<feComposite in2="hardAlpha" operator="out"/>
<feColorMatrix type="matrix" values="0 0 0 0 0.0862745 0 0 0 0 0.0862745 0 0 0 0 0.0823529 0 0 0 1 0"/>
<feBlend mode="normal" in2="BackgroundImageFix" result="effect1_dropShadow_5901_18291"/>
<feBlend mode="normal" in="SourceGraphic" in2="effect1_dropShadow_5901_18291" result="shape"/>
</filter>
<clipPath id="clip0_5901_18291">
<rect width="32" height="32" fill="white" transform="translate(8.5 8)"/>
</clipPath>
</defs>
</svg>
