<svg width="21" height="20" viewBox="0 0 21 20" fill="none" xmlns="http://www.w3.org/2000/svg">
<path d="M17.8862 6.0957H3.11384C2.951 6.0957 2.79486 6.16042 2.67983 6.27558C2.56465 6.39088 2.5 6.54718 2.5 6.71006V18.385C2.5 18.5479 2.56465 18.7042 2.67983 18.8195C2.79486 18.9346 2.951 18.9993 3.11384 18.9993H17.8862C18.049 18.9993 18.2051 18.9346 18.3202 18.8195C18.4353 18.7042 18.5 18.5479 18.5 18.385V6.71006C18.5 6.54719 18.4354 6.39088 18.3202 6.27558C18.2051 6.16043 18.049 6.0957 17.8862 6.0957ZM17.2723 11.6669L12.0345 14.7392L8.16749 11.3596C8.06416 11.2689 7.93329 11.2156 7.79599 11.2081C7.65884 11.2007 7.52297 11.2396 7.4105 11.3186L3.72765 14.0019V7.32464H17.2724L17.2723 11.6669Z" fill="#7C7B74"/>
<path d="M11.9337 12.3642C12.4709 12.3642 12.9861 12.1504 13.366 11.7702C13.7459 11.3899 13.9593 10.8741 13.9593 10.3364C13.9593 9.79861 13.7459 9.28282 13.366 8.90251C12.9861 8.5223 12.4709 8.30859 11.9337 8.30859C11.3965 8.30859 10.8812 8.52233 10.5013 8.90251C10.1215 9.28282 9.9082 9.79861 9.9082 10.3364C9.9082 10.8741 10.1216 11.3899 10.5013 11.7702C10.8812 12.1505 11.3965 12.3642 11.9337 12.3642Z" fill="#7C7B74"/>
<path d="M3.52148 4.04883H17.4754V5.27784H3.52148V4.04883Z" fill="#7C7B74"/>
<path d="M4.54688 2H16.4548V3.22901H4.54688V2Z" fill="#7C7B74"/>
</svg>
