<svg width="24" height="24" viewBox="0 0 24 24" fill="none" xmlns="http://www.w3.org/2000/svg">
<path d="M20.8274 12.2075C20.8274 11.5958 20.7778 10.9807 20.672 10.3789H12.1836V13.8444H17.0445C16.8428 14.962 16.1947 15.9508 15.2456 16.579V18.8276H18.1456C19.8486 17.2602 20.8274 14.9455 20.8274 12.2075Z" fill="#4285F4"/>
<path d="M12.1826 20.9994C14.6098 20.9994 16.6566 20.2025 18.148 18.8269L15.2479 16.5783C14.4411 17.1272 13.3995 17.4381 12.1859 17.4381C9.83813 17.4381 7.84748 15.8541 7.13322 13.7246H4.14062V16.0426C5.66834 19.0815 8.77998 20.9994 12.1826 20.9994V20.9994Z" fill="#34A853"/>
<path d="M7.13018 13.7246C6.75321 12.6069 6.75321 11.3966 7.13018 10.279V7.96094H4.14089C2.86449 10.5038 2.86449 13.4997 4.14089 16.0426L7.13018 13.7246V13.7246Z" fill="#FBBC04"/>
<path d="M12.1826 6.56196C13.4656 6.54212 14.7056 7.0249 15.6348 7.91111L18.2042 5.34177C16.5773 3.81406 14.418 2.97415 12.1826 3.00061C8.77997 3.00061 5.66834 4.91851 4.14062 7.96071L7.12991 10.2787C7.84086 8.14589 9.83482 6.56196 12.1826 6.56196V6.56196Z" fill="#EA4335"/>
</svg>
