<svg width="80" height="80" viewBox="0 0 80 80" fill="none" xmlns="http://www.w3.org/2000/svg">
<circle cx="40" cy="40" r="40" fill="#FF5938"/>
<circle cx="39.9992" cy="40.0011" r="28.5714" fill="#6F2010"/>
<path d="M55.3928 52.0021H24.8008V49.2181C24.8008 48.6208 24.8114 48.1194 24.8328 47.7141C24.8754 47.2874 24.9821 46.7328 25.1528 46.0501C25.3448 45.3461 25.6008 44.7381 25.9208 44.2261C26.2408 43.6928 26.7101 43.0954 27.3288 42.4341C27.9688 41.7728 28.7261 41.1861 29.6008 40.6741C30.4968 40.1621 31.6168 39.6501 32.9608 39.1381C34.3261 38.6261 35.8621 38.1888 37.5688 37.8261C38.8061 37.5274 40.3421 37.2181 42.1768 36.8981C43.5848 36.6208 44.4914 36.3541 44.8968 36.0981C45.3021 35.8421 45.5048 35.5114 45.5048 35.1061C45.5048 34.7861 45.3874 34.5301 45.1528 34.3381C44.9394 34.1248 44.4275 33.9434 43.6168 33.7941C42.8274 33.6234 41.7181 33.5381 40.2888 33.5381C39.2434 33.5381 38.3368 33.6234 37.5688 33.7941C36.8221 33.9648 36.2568 34.1568 35.8728 34.3701C35.5101 34.5621 35.2114 34.8288 34.9768 35.1701C34.7634 35.5114 34.6248 35.7781 34.5608 35.9701C34.5181 36.1408 34.4861 36.3648 34.4648 36.6421H25.1848V36.4181C25.1848 30.6368 29.8994 27.7461 39.3288 27.7461H40.7048C43.0301 27.7461 45.0568 27.8848 46.7848 28.1621C48.5341 28.4181 49.9208 28.7701 50.9448 29.2181C51.9901 29.6448 52.8221 30.1888 53.4408 30.8501C54.0595 31.5114 54.4755 32.1834 54.6888 32.8661C54.9235 33.5274 55.0408 34.2848 55.0408 35.1381V35.2661C55.0408 36.6314 54.7314 37.7514 54.1128 38.6261C53.4941 39.4794 52.3955 40.2154 50.8168 40.8341C49.2595 41.4528 47.0515 41.9968 44.1928 42.4661L39.0728 43.3301C34.8274 44.0554 32.7048 44.9514 32.7048 46.0181H46.9768V43.2021H55.3928V52.0021Z" fill="#FF5938"/>
<path d="M40.9264 20.3649L41.222 19.3649H40.0567L39.7612 20.3649H40.9264ZM40.158 23.002L40.6393 21.3649H39.4741L38.9928 23.002H37.5911L38.0724 21.3649H37L37.2871 20.3649H38.3595L38.6466 19.3649H37.5742L37.8697 18.3649H38.9421L39.339 17.002H40.7491L40.3438 18.3649H41.5175L41.9144 17.002H43.3245L42.9192 18.3649H44L43.7045 19.3649H42.6321L42.3366 20.3649H43.4174L43.1218 21.3649H42.041L41.5597 23.002H40.158Z" fill="#FF5938"/>
</svg>
