<svg width="124" height="12" viewBox="0 0 124 12" fill="none" xmlns="http://www.w3.org/2000/svg">
<path fill-rule="evenodd" clip-rule="evenodd" d="M72.7852 1.10438C68.158 1.56448 65.5341 3.9633 66.033 7.27713C66.2818 8.92916 67.4568 10.2712 69.4332 11.1612C70.7808 11.7679 71.3709 11.8444 74.7038 11.8444C78.0367 11.8444 78.6268 11.7679 79.9744 11.1612C83.5778 9.53878 84.5949 6.02883 82.2198 3.41061C80.5703 1.5918 76.9025 0.695187 72.7852 1.10438ZM39.6961 1.68985C35.6732 3.03419 34.3397 6.8432 36.903 9.66933C37.6513 10.4943 38.3987 10.9268 39.914 11.4122C43.3443 12.511 49.989 11.9914 51.9695 10.4696C52.2004 10.2922 52.3303 9.42865 52.3303 8.07108V5.94947H48.2887H44.247V6.95593V7.96238H46.2869H48.3271L48.2355 8.75317L48.1443 9.54396L45.3232 9.6262C42.046 9.72196 40.7611 9.29896 40.1949 7.93736C39.7706 6.91682 40.0004 5.21389 40.6609 4.48694C41.8659 3.16072 46.0681 2.96863 47.6934 4.16545C48.3571 4.6543 48.9529 4.79923 50.2979 4.79923C51.8852 4.79923 52.0416 4.74431 52.0416 4.18616C52.0416 3.19408 50.233 1.72896 48.5693 1.37354C46.0972 0.845581 41.7602 1.00029 39.6961 1.68985ZM53.7738 6.53063V12L59.6197 11.9224L65.4657 11.8444V10.5504V9.2564L61.6406 9.17617L57.8154 9.09594V5.07845V1.06096H55.7946H53.7738V6.53063ZM84.9523 6.49411V11.9882H86.9731H88.994V10.2629V8.5375L90.9426 8.54325L92.8913 8.54872L94.1973 10.1967L95.5031 11.8444L97.7338 11.9284C98.9604 11.9747 99.9639 11.91 99.9636 11.7846C99.9633 11.6592 99.271 10.7865 98.4252 9.84503L96.8873 8.13348L97.9927 7.0859C98.9512 6.17779 99.0972 5.8701 99.0918 4.77191C99.0843 3.31284 98.5516 2.51371 97.0773 1.74967C96.2294 1.31028 95.1728 1.20791 90.5096 1.11301L84.9523 1V6.49411ZM101.247 1.43048C101.169 1.63378 101.14 4.05992 101.184 6.82221L101.263 11.8444H103.284H105.305L105.383 6.4527L105.462 1.06096H103.426C102.034 1.06096 101.344 1.17771 101.247 1.43048ZM112.738 1.42041C112.273 2.00243 106.575 11.1543 106.407 11.5899C106.286 11.9025 106.635 11.9882 108.026 11.9882C109.746 11.9882 109.817 11.9583 110.395 10.9818L110.992 9.9753H114.506H118.02L118.564 10.9818L119.109 11.9882H121.394C123.125 11.9882 123.656 11.8976 123.586 11.6141C123.534 11.4085 122.074 8.94986 120.341 6.15047L117.189 1.06096H115.107C113.788 1.06096 112.921 1.19266 112.738 1.42041ZM77.6444 3.92218C78.8797 4.67271 79.2764 5.49973 79.0844 6.92544C78.7749 9.22505 76.1894 10.4222 73.1175 9.68802C71.1864 9.22678 70.3735 8.29164 70.3735 6.53149C70.3735 4.18961 71.4474 3.40831 74.7038 3.3807C76.2191 3.36776 76.9547 3.50349 77.6444 3.92218ZM94.6751 4.10219C95.1757 4.78428 95.1563 5.23373 94.6029 5.78527C94.2582 6.12833 93.5299 6.23703 91.5717 6.23703H88.994V4.75926V3.28178L91.6438 3.43218C93.7507 3.5518 94.372 3.68925 94.6751 4.10219ZM116.42 7.83212C116.42 7.90372 115.508 7.96238 114.393 7.96238H112.367L113.455 5.97592L114.542 3.98975L115.481 5.84566C115.997 6.86649 116.42 7.76052 116.42 7.83212Z" fill="white"/>
<path fill-rule="evenodd" clip-rule="evenodd" d="M19.9816 0C18.0743 0 16.6512 1.75649 17.0468 3.62231L17.4191 5.37769C17.5061 5.788 17.5061 6.212 17.4191 6.62231L17.0468 8.37769C16.6512 10.2435 18.0743 12 19.9816 12H28.5463C30.2032 12 31.5463 10.6569 31.5463 9V3C31.5463 1.34315 30.2032 0 28.5463 0H19.9816ZM24.5128 2.60104C24.3395 2.23455 23.839 2.23455 23.6658 2.60104L22.9501 4.11536C22.8813 4.2609 22.7483 4.36177 22.5945 4.38511L20.9941 4.62794C20.6068 4.68671 20.4521 5.18375 20.7324 5.46903L21.8905 6.64776C22.0018 6.76104 22.0526 6.92426 22.0263 7.08422L21.7529 8.74862C21.6867 9.15144 22.0916 9.45862 22.4381 9.26843L23.8695 8.48261C24.0071 8.40709 24.1715 8.40709 24.309 8.48261L25.7405 9.26843C26.0869 9.45862 26.4918 9.15144 26.4257 8.74862L26.1523 7.08422C26.126 6.92426 26.1768 6.76104 26.2881 6.64776L27.4462 5.46903C27.7264 5.18375 27.5718 4.68671 27.1844 4.62794L25.584 4.38511C25.4302 4.36177 25.2973 4.2609 25.2285 4.11536L24.5128 2.60104Z" fill="#FFEC45"/>
<path fill-rule="evenodd" clip-rule="evenodd" d="M6 0C2.68629 0 0 2.68629 0 6C0 9.31371 2.68629 12 6 12H10C13.3137 12 16 9.31371 16 6C16 2.68629 13.3137 0 10 0H6ZM10.4803 5.10166C11.2296 5.46676 11.2296 6.5345 10.4803 6.8996L6.95559 8.617C6.29134 8.94066 5.51758 8.45695 5.51758 7.71804V4.28323C5.51758 3.54432 6.29134 3.06061 6.9556 3.38426L10.4803 5.10166Z" fill="#7B61FF"/>
</svg>
