<svg width="140" height="140" viewBox="0 0 140 140" fill="none" xmlns="http://www.w3.org/2000/svg">
<circle cx="70" cy="70" r="70" fill="#6E45FF"/>
<circle cx="70" cy="70" r="50" fill="#2E2069"/>
<path d="M61.1854 72.049C61.2349 73.297 61.9293 74.4294 63.0193 75.0396C64.1089 75.6494 65.4373 75.6494 66.527 75.0396C67.6166 74.4294 68.3114 73.297 68.3609 72.049V71.4239L68.27 71.3557V71.3561C67.3148 70.6192 66.6834 69.5404 66.5086 68.3468C66.3336 67.1531 66.629 65.9384 67.3323 64.9587C67.6221 64.5668 67.9689 64.2199 68.3608 63.9305V62.868C68.3608 61.585 67.6765 60.3996 66.5656 59.7582C65.4544 59.1171 64.0857 59.1171 62.9749 59.7582C61.864 60.3997 61.1797 61.585 61.1797 62.868V65.3394V65.3848L61.1854 72.049Z" fill="#B3A1FC"/>
<path d="M73.7061 63.8727L74.8423 64.6282L72.6946 59.0664L70.7344 63.0435L70.7347 63.0431C71.7908 62.9701 72.8403 63.2629 73.706 63.8727L73.7061 63.8727Z" fill="#B3A1FC"/>
<path d="M85.7114 48.8404C86.1435 47.9713 86.2064 46.9647 85.8853 46.049C85.5642 45.1329 84.8869 44.386 84.0071 43.9769C83.1592 43.5798 82.1892 43.5325 81.3066 43.8451C80.4241 44.1576 79.7003 44.805 79.2913 45.6473L78.4277 47.4086L81.9388 56.4022L85.7114 48.8404Z" fill="#B3A1FC"/>
<path d="M85.0019 71.6392V68.6281C85.0027 67.8659 84.86 67.1104 84.5813 66.4011L76.4286 45.5043C75.9666 44.311 74.9035 43.4542 73.6387 43.2575C72.3743 43.0608 71.1007 43.5533 70.2983 44.5502C69.4955 45.5467 69.2854 46.896 69.7473 48.0896L76.4852 65.7868L85.0019 71.6392Z" fill="#B3A1FC"/>
<path d="M56.4482 75.6163C57.3955 75.6148 58.3041 75.2389 58.9754 74.5706C59.6471 73.9023 60.027 72.9959 60.033 72.0482V65.3387C59.9753 64.0907 59.2731 62.9623 58.1786 62.3596C57.0841 61.7569 55.7553 61.7662 54.6694 62.3846C53.5838 63.003 52.8977 64.141 52.8574 65.3898V72.0483C52.8649 72.9964 53.2463 73.9031 53.9188 74.5711C54.5912 75.2394 55.5001 75.6148 56.4482 75.6164V75.6163Z" fill="#B3A1FC"/>
<path d="M86.3779 73.9625L73.038 64.821C72.2996 64.2999 71.3843 64.0935 70.4936 64.2466C69.6033 64.4001 68.8098 64.9011 68.2882 65.6392C67.76 66.3712 67.5376 67.2798 67.668 68.1727C67.7984 69.0656 68.2715 69.8729 68.9871 70.4232L76.8105 76.3828C77.2583 76.7274 77.5273 77.2553 77.5433 77.82C77.5589 78.3766 77.3205 78.9097 76.8955 79.2688C75.0149 80.8542 70.7257 85.0642 71.1004 89.9613L69.9642 90.0522C69.538 84.8141 73.6571 80.4897 76.1515 78.3821C76.3076 78.2495 76.3955 78.0532 76.3899 77.8483C76.3951 77.6248 76.2912 77.4128 76.1116 77.2802L69.5268 72.2973C69.4538 73.6842 68.7777 74.9694 67.6765 75.8155C66.5749 76.6611 65.1586 76.9822 63.8 76.695C62.4414 76.4074 61.2769 75.5394 60.6127 74.3202C59.8695 75.6885 58.5012 76.6045 56.9526 76.77C55.4044 76.9357 53.8733 76.33 52.8574 75.1495V77.4223C52.8664 82.5173 54.8955 87.4015 58.4993 91.0035C62.1032 94.6051 66.9882 96.6313 72.0834 96.6372H74.6003C78.1083 96.6327 81.4712 95.2372 83.9519 92.7566C86.4326 90.2763 87.8281 86.9132 87.8325 83.405V76.7807C87.8407 75.659 87.2968 74.6055 86.3781 73.9625L86.3779 73.9625Z" fill="#B3A1FC"/>
<path d="M43.0743 20.2444C43.0196 20.2696 42.9575 20.2736 42.9 20.2556C42.8701 20.2464 42.8426 20.2307 42.8194 20.2097C42.7962 20.1887 42.7779 20.1629 42.7658 20.1341L40.168 14.6987C40.1531 14.6715 40.1445 14.6413 40.1429 14.6103C40.1412 14.5793 40.1465 14.5484 40.1584 14.5197C40.1792 14.4626 40.2217 14.4161 40.2767 14.3902L41.0552 14.0193C41.0881 14.0003 41.1245 13.9884 41.1622 13.9843C41.1999 13.9802 41.2381 13.9839 41.2742 13.9953C41.3382 14.0209 41.3829 14.0401 41.4101 14.0545L44.3053 16.1551L44.5067 12.5757C44.5112 12.5283 44.5214 12.4816 44.537 12.4367C44.551 12.4003 44.5725 12.3673 44.6 12.3398C44.6276 12.3122 44.6606 12.2908 44.6969 12.2768L45.4754 11.9043C45.5029 11.8901 45.5329 11.8817 45.5637 11.8795C45.5944 11.8773 45.6253 11.8814 45.6545 11.8915C45.6834 11.902 45.7099 11.9183 45.7322 11.9395C45.7545 11.9607 45.7721 11.9862 45.784 12.0146L48.3818 17.45C48.3965 17.4772 48.4054 17.5072 48.4079 17.538C48.4104 17.5688 48.4064 17.5998 48.3962 17.629C48.3741 17.6873 48.3299 17.7345 48.2731 17.7601L47.4194 18.1678C47.3933 18.1807 47.3648 18.1883 47.3357 18.1899C47.3065 18.1916 47.2774 18.1873 47.25 18.1774C47.1917 18.1553 47.1445 18.1111 47.1189 18.0543L45.5042 14.6748L45.3939 17.1734C45.3895 17.2375 45.3738 17.3003 45.3476 17.3589C45.3179 17.4229 45.2655 17.4736 45.2005 17.5011L44.8072 17.6898C44.745 17.7231 44.6725 17.7317 44.6042 17.7138C44.542 17.6978 44.4834 17.6701 44.4316 17.6322L42.4172 16.1487L44.0319 19.5298C44.046 19.5569 44.0545 19.5867 44.0567 19.6172C44.0589 19.6478 44.0548 19.6784 44.0447 19.7073C44.0358 19.7352 44.0211 19.7609 44.0015 19.7826C43.982 19.8044 43.958 19.8218 43.9312 19.8336L43.0743 20.2444Z" fill="white"/>
<path d="M50.7692 16.8291C50.7403 16.84 50.7094 16.8448 50.6786 16.8431C50.6478 16.8414 50.6176 16.8333 50.5901 16.8193C50.5626 16.8053 50.5383 16.7857 50.5187 16.7618C50.4992 16.7379 50.4849 16.7102 50.4766 16.6805L48.6302 10.9429C48.62 10.9139 48.6157 10.883 48.6176 10.8523C48.6196 10.8215 48.6276 10.7915 48.6414 10.7639C48.6555 10.7366 48.6752 10.7125 48.6991 10.6933C48.7231 10.674 48.7508 10.6599 48.7805 10.652L52.7771 9.37309C52.806 9.36263 52.8368 9.35806 52.8676 9.3597C52.8983 9.36135 52.9284 9.36916 52.9561 9.38265C52.9833 9.39692 53.0073 9.41664 53.0265 9.44057C53.0458 9.4645 53.0599 9.49213 53.068 9.52175L53.2966 10.2283C53.3058 10.2561 53.3093 10.2854 53.3068 10.3146C53.3044 10.3437 53.296 10.372 53.2822 10.3978C53.2682 10.4254 53.2486 10.4497 53.2247 10.4692C53.2007 10.4888 53.173 10.5031 53.1432 10.5113L50.2832 11.4321L50.7292 12.8165L53.3957 11.9597C53.4246 11.9491 53.4554 11.9446 53.4862 11.9465C53.5169 11.9485 53.5469 11.9567 53.5742 11.9708C53.6016 11.985 53.6257 12.0046 53.6451 12.0286C53.6644 12.0525 53.6786 12.0802 53.6867 12.1099L53.8977 12.7622C53.9069 12.7899 53.9104 12.8192 53.9079 12.8484C53.9054 12.8775 53.8971 12.9058 53.8833 12.9316C53.8693 12.9592 53.8497 12.9835 53.8258 13.003C53.8018 13.0226 53.7741 13.037 53.7443 13.0452L51.0793 13.9036L51.5397 15.3328L54.47 14.3896C54.4987 14.379 54.5294 14.3744 54.5599 14.3764C54.5905 14.3783 54.6203 14.3866 54.6475 14.4008C54.675 14.4148 54.6993 14.4344 54.7189 14.4584C54.7384 14.4823 54.7528 14.5101 54.761 14.5399L54.9848 15.2369C54.9956 15.2658 55.0004 15.2966 54.9987 15.3274C54.9971 15.3582 54.989 15.3883 54.9752 15.4159C54.9607 15.4429 54.9409 15.4668 54.917 15.486C54.8931 15.5052 54.8656 15.5195 54.8361 15.5279L50.7692 16.8291Z" fill="white"/>
<path d="M57.1724 14.9135C57.1424 14.9205 57.1112 14.9211 57.081 14.9154C57.0507 14.9096 57.0219 14.8975 56.9966 14.88C56.9709 14.8629 56.9492 14.8404 56.933 14.8142C56.9167 14.788 56.9062 14.7586 56.9023 14.7281L55.8024 8.80193C55.7956 8.77189 55.7951 8.74074 55.8008 8.71049C55.8066 8.68023 55.8186 8.65149 55.836 8.62607C55.8536 8.60088 55.8761 8.57956 55.9022 8.56334C55.9283 8.54713 55.9575 8.53639 55.9878 8.53177L56.9822 8.3479C57.0123 8.3411 57.0434 8.34057 57.0736 8.34634C57.1039 8.35212 57.1326 8.36407 57.1581 8.38147C57.184 8.40011 57.2058 8.42396 57.2221 8.45149C57.2383 8.47901 57.2486 8.5096 57.2524 8.54133L57.6744 10.821L60.1459 10.3622L59.7223 8.07294C59.7155 8.0429 59.7149 8.01175 59.7207 7.9815C59.7265 7.95124 59.7385 7.9225 59.7559 7.89708C59.7736 7.87202 59.7962 7.85079 59.8223 7.83459C59.8483 7.81839 59.8774 7.80758 59.9077 7.80278L60.9021 7.61891C60.9321 7.61201 60.9633 7.61146 60.9935 7.61724C61.0238 7.62302 61.0525 7.63503 61.0779 7.65252C61.103 7.67026 61.1242 7.69283 61.1404 7.71891C61.1566 7.74499 61.1674 7.77406 61.1722 7.80438L62.2705 13.7305C62.2777 13.7605 62.2785 13.7918 62.2729 13.8222C62.2673 13.8525 62.2553 13.8814 62.2379 13.9068C62.2204 13.9323 62.1978 13.9538 62.1714 13.97C62.1451 13.9862 62.1157 13.9966 62.0851 14.0007L61.0923 14.1845C61.0623 14.1917 61.031 14.1926 61.0007 14.187C60.9703 14.1813 60.9414 14.1694 60.916 14.1519C60.8905 14.1344 60.869 14.1118 60.8528 14.0855C60.8367 14.0592 60.8262 14.0297 60.8221 13.9991L60.3857 11.6475L57.9142 12.1063L58.3506 14.4579C58.3576 14.4879 58.3582 14.5191 58.3525 14.5493C58.3468 14.5796 58.3348 14.6084 58.3174 14.6338C58.2999 14.6592 58.2774 14.6807 58.2512 14.697C58.225 14.7132 58.1957 14.7238 58.1652 14.7281L57.1724 14.9135Z" fill="white"/>
<path d="M64.79 13.7436C64.7593 13.7476 64.7281 13.7452 64.6984 13.7365C64.6687 13.7277 64.6412 13.7129 64.6175 13.6928C64.5939 13.6728 64.5747 13.6481 64.5612 13.6202C64.5477 13.5923 64.5402 13.5619 64.5391 13.531L64.0467 7.52493C64.0428 7.49417 64.0453 7.46293 64.0541 7.43321C64.063 7.40349 64.0778 7.37593 64.0979 7.35226C64.1179 7.32911 64.1423 7.31022 64.1698 7.29676C64.1973 7.2833 64.2272 7.27554 64.2577 7.27393L65.3032 7.1892C65.3337 7.18541 65.3646 7.18797 65.394 7.19673C65.4234 7.20549 65.4507 7.22026 65.4742 7.24009C65.4976 7.25992 65.5167 7.28438 65.5302 7.31194C65.5437 7.3395 65.5513 7.36956 65.5526 7.40023L66.045 13.4079C66.049 13.4384 66.0466 13.4694 66.038 13.4989C66.0293 13.5285 66.0146 13.5558 65.9947 13.5793C65.9748 13.6028 65.9502 13.6219 65.9226 13.6353C65.8949 13.6487 65.8647 13.6562 65.834 13.6573L64.79 13.7436Z" fill="white"/>
<path d="M71.5591 13.476C71.5282 13.4753 71.4977 13.4681 71.4697 13.455C71.4417 13.4419 71.4168 13.4231 71.3965 13.3998C71.3762 13.3764 71.3609 13.3491 71.3518 13.3196C71.3426 13.29 71.3397 13.2589 71.3433 13.2282L71.7685 7.21568C71.7694 7.18489 71.7767 7.15467 71.7899 7.12685C71.8032 7.09903 71.822 7.07424 71.8453 7.0541C71.8686 7.03395 71.8958 7.0189 71.9253 7.00984C71.9547 7.00078 71.9857 6.99793 72.0163 7.00149L77.0025 7.35478C77.0333 7.35568 77.0635 7.36299 77.0914 7.37621C77.1192 7.38943 77.1439 7.40825 77.1641 7.43155C77.1842 7.45485 77.1993 7.48208 77.2084 7.51152C77.2174 7.54096 77.2202 7.57198 77.2167 7.60258L76.7915 13.6134C76.7908 13.6444 76.7837 13.6748 76.7705 13.7028C76.7574 13.7308 76.7386 13.7558 76.7152 13.7761C76.6919 13.7964 76.6646 13.8116 76.6351 13.8208C76.6055 13.83 76.5744 13.8328 76.5437 13.8293L75.5349 13.7573C75.5042 13.7564 75.4739 13.7491 75.4461 13.7359C75.4183 13.7227 75.3935 13.7038 75.3733 13.6805C75.3532 13.6572 75.3381 13.63 75.3291 13.6006C75.32 13.5711 75.3172 13.5401 75.3207 13.5095L75.6692 8.58092L73.1626 8.4035L72.8141 13.3321C72.8134 13.363 72.8062 13.3934 72.7931 13.4215C72.78 13.4495 72.7612 13.4744 72.7378 13.4948C72.7145 13.5151 72.6872 13.5303 72.6577 13.5394C72.6281 13.5486 72.597 13.5515 72.5663 13.5479L71.5591 13.476Z" fill="white"/>
<path d="M81.4688 14.7674C80.977 14.6787 80.5098 14.4857 80.0988 14.2015C79.746 13.9491 79.4789 13.5949 79.333 13.1863C79.1807 12.7148 79.1542 12.2117 79.2563 11.7268C79.3026 11.4646 79.3538 11.2056 79.4066 10.9482C79.4593 10.6909 79.5169 10.4303 79.5776 10.1649C79.6787 9.68249 79.9035 9.23459 80.2299 8.86521C80.5301 8.5444 80.9201 8.32156 81.3489 8.22575C81.834 8.12162 82.3361 8.12545 82.8196 8.23695C83.3045 8.32535 83.7637 8.52029 84.1641 8.80768C84.5204 9.06758 84.7905 9.42846 84.9394 9.84359C85.0955 10.311 85.1231 10.8118 85.0194 11.2935C84.9762 11.5621 84.9283 11.8259 84.8755 12.0833C84.8228 12.3407 84.762 12.598 84.6964 12.8554C84.5975 13.3408 84.3738 13.7921 84.0474 14.1647C83.7526 14.4831 83.3669 14.703 82.9427 14.7946C82.4552 14.8917 81.9524 14.8825 81.4688 14.7674ZM81.7102 13.5972C82.0282 13.6742 82.3638 13.6225 82.6438 13.4533C82.9156 13.2854 83.1058 12.9657 83.2145 12.4941C83.2816 12.2287 83.3392 11.981 83.3888 11.7476C83.4383 11.5142 83.4815 11.268 83.5231 11.0042C83.5815 10.7404 83.5765 10.4665 83.5087 10.2049C83.4517 9.99793 83.3329 9.8133 83.1682 9.67573C82.996 9.53874 82.7929 9.44599 82.5766 9.40557C82.3598 9.35659 82.1344 9.36095 81.9196 9.41833C81.7138 9.47812 81.5316 9.6005 81.3985 9.76846C81.2335 9.98588 81.1183 10.2369 81.0611 10.5038C81.002 10.7628 80.9476 11.009 80.9013 11.2424C80.8549 11.4758 80.8054 11.722 80.7558 11.9938C80.6759 12.4733 80.727 12.8378 80.9061 13.0984C81.0974 13.3646 81.3867 13.544 81.7102 13.5972Z" fill="white"/>
<path d="M92.3523 19.4243C92.2955 19.4031 92.249 19.3607 92.2228 19.306C92.21 19.2776 92.2034 19.2469 92.2034 19.2157C92.2034 19.1846 92.21 19.1538 92.2228 19.1254L92.5985 18.1278L86.3478 15.781C86.3185 15.7713 86.2916 15.7557 86.2687 15.7351C86.2458 15.7144 86.2275 15.6892 86.2148 15.6611C86.2022 15.633 86.1956 15.6026 86.1953 15.5718C86.1951 15.5409 86.2013 15.5104 86.2135 15.4821L88.3317 9.84049C88.3414 9.81112 88.3571 9.78405 88.3778 9.76095C88.3984 9.73786 88.4235 9.71922 88.4516 9.7062C88.4798 9.69387 88.5103 9.6875 88.5411 9.6875C88.5719 9.6875 88.6024 9.69387 88.6306 9.7062L89.577 10.0611C89.6063 10.0708 89.6332 10.0864 89.6561 10.1071C89.679 10.1277 89.6973 10.1529 89.7099 10.181C89.7226 10.2091 89.7292 10.2396 89.7295 10.2704C89.7297 10.3012 89.7235 10.3317 89.7113 10.3601L87.9736 14.9865L89.5195 15.5668L91.2572 10.9403C91.267 10.911 91.2827 10.8839 91.3033 10.8608C91.3239 10.8377 91.349 10.8191 91.3771 10.8061C91.4038 10.7946 91.4327 10.7886 91.4618 10.7886C91.491 10.7886 91.5198 10.7946 91.5465 10.8061L92.5057 11.1642C92.5348 11.1742 92.5615 11.19 92.5843 11.2106C92.6071 11.2312 92.6255 11.2562 92.6384 11.2841C92.6508 11.3123 92.6571 11.3428 92.6571 11.3736C92.6571 11.4044 92.6508 11.4349 92.6384 11.4631L90.9007 16.0896L92.437 16.6667L94.1747 12.0402C94.1846 12.0111 94.2004 11.9843 94.2211 11.9615C94.2417 11.9387 94.2668 11.9204 94.2948 11.9077C94.3228 11.895 94.3531 11.8881 94.3839 11.8875C94.4147 11.8869 94.4452 11.8926 94.4737 11.9043L95.42 12.2608C95.449 12.2706 95.4757 12.2861 95.4985 12.3064C95.5213 12.3268 95.5397 12.3515 95.5527 12.3791C95.5651 12.4074 95.5714 12.4378 95.5714 12.4686C95.5714 12.4995 95.5651 12.5299 95.5527 12.5582L93.815 17.1846L94.2227 17.3445C94.2518 17.3544 94.2786 17.3701 94.3014 17.3907C94.3242 17.4113 94.3426 17.4364 94.3554 17.4644C94.3672 17.4928 94.3733 17.5232 94.3733 17.5539C94.3733 17.5847 94.3672 17.6151 94.3554 17.6435L93.5976 19.6577C93.5878 19.6867 93.5723 19.7133 93.552 19.7361C93.5317 19.7589 93.5069 19.7774 93.4793 19.7904C93.4511 19.8028 93.4206 19.8091 93.3898 19.8091C93.359 19.8091 93.3285 19.8028 93.3003 19.7904L92.3523 19.4243Z" fill="white"/>
<path d="M95.2071 19.3429C95.1843 19.3301 95.1645 19.3127 95.1488 19.2917C95.1331 19.2708 95.1219 19.2469 95.116 19.2214C95.103 19.173 95.1093 19.1214 95.1336 19.0775C95.1476 19.0529 95.1642 19.0299 95.1831 19.0088L100.038 14.9067C100.088 14.8561 100.152 14.8216 100.222 14.8076C100.305 14.7933 100.39 14.8109 100.46 14.8571L101.493 15.4406C101.566 15.4791 101.623 15.5426 101.653 15.6197C101.677 15.6864 101.68 15.7588 101.662 15.8275L100.649 22.1038C100.64 22.1303 100.629 22.156 100.615 22.1805C100.603 22.2023 100.587 22.2214 100.567 22.2368C100.547 22.2522 100.524 22.2635 100.5 22.27C100.476 22.2789 100.449 22.2821 100.423 22.2794C100.397 22.2766 100.372 22.2679 100.35 22.254L99.5107 21.7744C99.4767 21.7592 99.4462 21.7372 99.4212 21.7097C99.3962 21.6822 99.3771 21.6498 99.3652 21.6146C99.349 21.5679 99.3446 21.5179 99.3524 21.4691L99.5123 20.3692L97.2374 19.0823L96.3789 19.7889C96.3403 19.8203 96.2948 19.8422 96.2462 19.8529C96.1734 19.8662 96.0984 19.8508 96.0368 19.8097L95.2071 19.3429ZM98.1342 18.2239L99.8048 19.1686L100.284 16.3742L98.1342 18.2239Z" fill="white"/>
<path d="M103.887 24.904C103.472 24.6106 103.128 24.2283 102.879 23.785C102.676 23.4021 102.593 22.9672 102.64 22.5364C102.702 22.0611 102.883 21.609 103.164 21.2207C103.311 21.015 103.471 20.7955 103.644 20.5621C103.816 20.3287 103.986 20.1081 104.152 19.9003C104.447 19.524 104.832 19.2282 105.271 19.0402C105.677 18.8763 106.122 18.8362 106.55 18.9251C107.043 19.0327 107.505 19.2514 107.901 19.5645C108.209 19.7887 108.482 20.0582 108.71 20.3638C108.909 20.6313 109.055 20.934 109.141 21.2559C109.222 21.5525 109.235 21.8635 109.18 22.1659C109.125 22.4683 109.002 22.7544 108.822 23.0032C108.806 23.0246 108.786 23.0425 108.764 23.0555C108.741 23.0684 108.715 23.0763 108.689 23.0784C108.636 23.0842 108.584 23.0693 108.542 23.0368L107.696 22.3974C107.643 22.3623 107.605 22.3087 107.589 22.2471C107.578 22.1759 107.588 22.1032 107.618 22.0377C107.757 21.766 107.786 21.4508 107.698 21.1584C107.588 20.8973 107.407 20.6727 107.175 20.511C106.92 20.2974 106.591 20.1919 106.259 20.2168C105.955 20.252 105.65 20.4582 105.341 20.8387C105.033 21.2192 104.702 21.6476 104.406 22.084C104.128 22.4847 104.014 22.8364 104.066 23.1391C104.134 23.4656 104.327 23.7524 104.604 23.9384C104.826 24.1167 105.095 24.2276 105.378 24.2582C105.681 24.263 105.974 24.1481 106.193 23.9384C106.247 23.8887 106.316 23.8568 106.388 23.8473C106.451 23.8497 106.511 23.8728 106.559 23.9129L107.405 24.5523C107.427 24.5677 107.445 24.5872 107.459 24.6097C107.473 24.6322 107.482 24.6572 107.487 24.6834C107.492 24.709 107.491 24.7354 107.485 24.7607C107.479 24.7861 107.468 24.8099 107.452 24.8305C107.262 25.0723 107.021 25.2687 106.746 25.4053C106.471 25.5419 106.169 25.6154 105.862 25.6202C105.529 25.6287 105.197 25.5745 104.884 25.4603C104.525 25.3262 104.189 25.1386 103.887 24.904Z" fill="white"/>
<path d="M108.795 28.928C108.773 28.9078 108.754 28.8832 108.741 28.8558C108.728 28.8283 108.72 28.7985 108.719 28.7681C108.719 28.7382 108.726 28.7086 108.738 28.6812C108.75 28.6537 108.767 28.629 108.789 28.6083L112.233 25.0257L111.018 23.8555C110.995 23.8354 110.978 23.8107 110.966 23.7831C110.954 23.7555 110.948 23.7257 110.949 23.6957C110.948 23.6661 110.952 23.6367 110.963 23.6092C110.974 23.5816 110.99 23.5567 111.011 23.5358L111.59 22.9347C111.61 22.9119 111.635 22.8935 111.662 22.8806C111.69 22.8677 111.719 22.8605 111.75 22.8596C111.779 22.8583 111.809 22.8632 111.836 22.8739C111.864 22.8846 111.889 22.901 111.91 22.9219L115.412 26.2903C115.435 26.3103 115.453 26.3349 115.466 26.3624C115.479 26.3899 115.486 26.4197 115.487 26.4501C115.486 26.5103 115.462 26.5677 115.419 26.61L114.84 27.2111C114.82 27.2331 114.795 27.2506 114.767 27.2624C114.74 27.2742 114.71 27.2802 114.68 27.2798C114.62 27.2789 114.562 27.2542 114.52 27.2111L113.312 26.0473L109.867 29.6298C109.846 29.6523 109.822 29.6706 109.794 29.6835C109.767 29.6964 109.737 29.7037 109.707 29.705C109.677 29.7047 109.647 29.6984 109.62 29.6866C109.592 29.6748 109.568 29.6577 109.547 29.6362L108.795 28.928Z" fill="white"/>
<path d="M112.406 32.5754C112.385 32.5517 112.37 32.5238 112.362 32.4937C112.353 32.4636 112.351 32.432 112.356 32.4011C112.359 32.3701 112.367 32.3398 112.382 32.3123C112.396 32.2848 112.417 32.2606 112.441 32.2413L117.139 28.4653C117.163 28.445 117.19 28.43 117.22 28.4211C117.25 28.4123 117.281 28.4099 117.312 28.4141C117.372 28.4221 117.426 28.4531 117.464 28.5004L118.103 29.2886C118.123 29.3118 118.138 29.3388 118.147 29.368C118.156 29.3971 118.159 29.4277 118.156 29.458C118.153 29.4895 118.144 29.52 118.128 29.5475C118.113 29.5751 118.092 29.5991 118.067 29.6179L114.946 32.1278L119.902 31.7968C119.956 31.7945 120.01 31.8004 120.062 31.8144C120.123 31.8335 120.176 31.8716 120.214 31.9231L120.784 32.6313C120.804 32.6549 120.819 32.6821 120.828 32.7115C120.837 32.7409 120.84 32.7718 120.837 32.8024C120.834 32.8338 120.825 32.8642 120.809 32.8918C120.794 32.9193 120.773 32.9433 120.747 32.9622L116.051 36.7382C116.028 36.7576 116.001 36.7721 115.972 36.7808C115.943 36.7896 115.913 36.7924 115.883 36.7891C115.853 36.7858 115.824 36.7765 115.798 36.7617C115.772 36.7469 115.749 36.727 115.731 36.7031L115.092 35.9149C115.055 35.87 115.037 35.8129 115.04 35.7551C115.043 35.7238 115.051 35.6934 115.066 35.6658C115.081 35.6383 115.102 35.6142 115.127 35.5952L118.155 33.1621L113.293 33.4179C113.245 33.4281 113.195 33.4281 113.148 33.4179C113.082 33.399 113.026 33.3577 112.988 33.3012L112.406 32.5754Z" fill="white"/>
<path d="M117.973 40.133C117.955 40.1074 117.943 40.0785 117.937 40.048C117.932 40.0175 117.932 39.9861 117.94 39.9559C117.947 39.9257 117.96 39.8975 117.979 39.8729C117.998 39.8483 118.022 39.828 118.05 39.8132L122.289 37.2202L121.408 35.7815C121.393 35.7566 121.383 35.729 121.378 35.7002C121.373 35.6713 121.374 35.6418 121.381 35.6134C121.388 35.585 121.4 35.5583 121.418 35.5347C121.435 35.5111 121.457 35.4912 121.482 35.4761L122.193 35.0397C122.219 35.0227 122.248 35.0111 122.279 35.0056C122.309 35.0001 122.34 35.0008 122.371 35.0077C122.399 35.0145 122.426 35.0269 122.45 35.0442C122.473 35.0615 122.493 35.0833 122.508 35.1084L125.044 39.2537C125.06 39.2795 125.072 39.3083 125.077 39.3384C125.083 39.3686 125.082 39.3996 125.076 39.4295C125.068 39.4594 125.055 39.4874 125.036 39.5118C125.017 39.5363 124.994 39.5567 124.967 39.5718L124.254 40.0083C124.229 40.0237 124.201 40.034 124.173 40.0384C124.144 40.0428 124.114 40.0412 124.086 40.0338C124.056 40.0266 124.028 40.0133 124.004 39.9949C123.979 39.9765 123.959 39.9533 123.944 39.9267L123.068 38.488L118.828 41.0809C118.803 41.0983 118.774 41.1102 118.744 41.1157C118.713 41.1212 118.682 41.1202 118.652 41.1129C118.622 41.1056 118.594 41.0922 118.57 41.0735C118.545 41.0548 118.525 41.0312 118.51 41.0042L117.973 40.133Z" fill="white"/>
<path d="M120.534 44.6016C120.52 44.5744 120.512 44.5445 120.51 44.5139C120.508 44.4833 120.513 44.4527 120.524 44.4242C120.535 44.3952 120.552 44.3687 120.573 44.3465C120.595 44.3242 120.621 44.3066 120.649 44.2947L126.126 41.7817C126.153 41.7679 126.183 41.7599 126.214 41.7582C126.245 41.7564 126.275 41.7611 126.304 41.7717C126.333 41.7823 126.359 41.7988 126.381 41.82C126.404 41.8413 126.421 41.8668 126.433 41.8952L126.855 42.8144C126.869 42.8417 126.878 42.8717 126.88 42.9025C126.882 42.9333 126.877 42.9641 126.866 42.993C126.856 43.0219 126.839 43.0483 126.818 43.0704C126.796 43.0925 126.77 43.1098 126.741 43.1213L124.869 43.9798L125.327 44.9741C125.646 45.6658 125.736 46.2738 125.597 46.7982C125.457 47.3225 125.075 47.7297 124.449 48.0196C124.101 48.1858 123.715 48.258 123.33 48.2289C122.952 48.1957 122.593 48.0492 122.301 47.8085C121.952 47.5165 121.678 47.1455 121.501 46.7262L120.534 44.6016ZM122.105 45.2491L122.543 46.2003C122.589 46.3195 122.661 46.4272 122.753 46.5154C122.845 46.6036 122.956 46.6701 123.077 46.7102C123.324 46.7797 123.587 46.7535 123.814 46.6367C123.933 46.5938 124.041 46.5265 124.132 46.4392C124.223 46.3519 124.294 46.2466 124.342 46.1299C124.41 45.8894 124.381 45.6319 124.262 45.4122L123.826 44.453L122.105 45.2491Z" fill="white"/>
<path d="M127.401 59.9025C127.365 59.7092 127.383 59.5101 127.45 59.3257C127.517 59.1394 127.632 58.9741 127.783 58.8463C127.931 58.7188 128.111 58.6338 128.304 58.6002C128.499 58.5637 128.701 58.5825 128.887 58.6545C129.067 58.7245 129.228 58.8382 129.353 58.9853C129.481 59.1365 129.567 59.3191 129.601 59.5142C129.635 59.7093 129.617 59.9101 129.548 60.0959C129.478 60.2753 129.366 60.4353 129.221 60.5625C129.072 60.6902 128.891 60.7753 128.697 60.809C128.504 60.8427 128.305 60.8239 128.121 60.7543C127.938 60.6887 127.773 60.579 127.642 60.4347C127.514 60.2831 127.43 60.0989 127.401 59.9025Z" fill="white"/>
<path d="M126.535 72.4582C126.537 72.4275 126.545 72.3975 126.559 72.37C126.573 72.3426 126.592 72.3182 126.615 72.2983C126.638 72.2773 126.666 72.2616 126.696 72.2522C126.725 72.2428 126.757 72.24 126.788 72.2439L132.789 72.8019C132.82 72.8039 132.851 72.8125 132.878 72.8271C132.906 72.8417 132.93 72.862 132.949 72.8866C132.986 72.9343 133.004 72.9943 132.999 73.0545L132.919 73.9129C132.918 73.9511 132.909 73.9886 132.893 74.0232C132.877 74.0579 132.854 74.0889 132.826 74.1144C132.772 74.1559 132.732 74.1847 132.706 74.2007L129.418 75.6075L132.388 77.617C132.426 77.6451 132.46 77.6778 132.49 77.7145C132.514 77.7445 132.53 77.7791 132.54 77.816C132.549 77.8528 132.551 77.8912 132.545 77.9287L132.465 78.7888C132.463 78.8194 132.455 78.8493 132.441 78.8767C132.427 78.9042 132.408 78.9286 132.385 78.9487C132.361 78.9679 132.333 78.982 132.303 78.9902C132.274 78.9985 132.243 79.0006 132.212 78.9966L126.211 78.4387C126.18 78.4366 126.15 78.4285 126.123 78.4147C126.095 78.401 126.071 78.382 126.051 78.3587C126.012 78.3099 125.995 78.2479 126.001 78.1861L126.089 77.2445C126.092 77.2153 126.1 77.1869 126.114 77.1611C126.128 77.1352 126.146 77.1125 126.169 77.0942C126.193 77.0743 126.221 77.0596 126.25 77.0511C126.28 77.0426 126.311 77.0403 126.342 77.0447L130.072 77.3916L127.984 76.0151C127.931 75.9784 127.884 75.933 127.846 75.8808C127.806 75.8224 127.79 75.7511 127.8 75.681L127.84 75.2478C127.843 75.1768 127.873 75.1096 127.923 75.0592C127.97 75.0152 128.024 74.9796 128.083 74.9537L130.39 73.9849L126.66 73.6379C126.629 73.636 126.599 73.628 126.572 73.6143C126.545 73.6005 126.52 73.5814 126.5 73.558C126.481 73.5361 126.467 73.5107 126.459 73.4832C126.45 73.4558 126.447 73.4269 126.449 73.3982L126.535 72.4582Z" fill="white"/>
<path d="M125.527 80.811C125.532 80.7805 125.544 80.7515 125.562 80.7259C125.579 80.7003 125.602 80.6786 125.628 80.6624C125.654 80.6462 125.683 80.6356 125.713 80.6312C125.743 80.6268 125.774 80.6287 125.804 80.6368L131.677 81.9908C131.707 81.9965 131.736 82.0084 131.762 82.0257C131.788 82.0431 131.809 82.0655 131.826 82.0915C131.842 82.1179 131.852 82.1472 131.856 82.1777C131.861 82.2081 131.859 82.2392 131.851 82.269L130.908 86.3615C130.902 86.3915 130.89 86.4199 130.873 86.4452C130.855 86.4704 130.833 86.492 130.807 86.5086C130.781 86.5249 130.752 86.5358 130.722 86.5405C130.691 86.5451 130.66 86.5435 130.63 86.5358L129.907 86.3679C129.879 86.3623 129.852 86.3507 129.828 86.3339C129.804 86.3171 129.783 86.2954 129.768 86.2704C129.752 86.2442 129.741 86.215 129.737 86.1844C129.732 86.1538 129.734 86.1227 129.743 86.0929L130.417 83.1658L128.998 82.8381L128.37 85.567C128.357 85.6279 128.321 85.6813 128.269 85.7156C128.242 85.7314 128.213 85.7418 128.183 85.7462C128.152 85.7506 128.121 85.7489 128.091 85.7413L127.423 85.5814C127.395 85.5755 127.367 85.5638 127.344 85.547C127.32 85.5302 127.299 85.5087 127.284 85.4839C127.268 85.4577 127.257 85.4284 127.252 85.3978C127.248 85.3673 127.25 85.3361 127.259 85.3064L127.887 82.5775L126.424 82.2402L125.732 85.2393C125.726 85.2696 125.714 85.2985 125.697 85.3241C125.68 85.3497 125.657 85.3714 125.631 85.3878C125.605 85.4042 125.576 85.4149 125.545 85.4193C125.515 85.4238 125.483 85.4218 125.454 85.4135L124.741 85.2537C124.71 85.2478 124.682 85.2358 124.656 85.2185C124.63 85.2012 124.609 85.1789 124.592 85.1529C124.576 85.1266 124.565 85.0974 124.561 85.0669C124.557 85.0364 124.558 85.0053 124.566 84.9755L125.527 80.811Z" fill="white"/>
<path d="M123.885 87.2956C123.894 87.2662 123.909 87.239 123.93 87.2159C123.95 87.1927 123.975 87.1741 124.003 87.1613C124.031 87.1489 124.062 87.1426 124.093 87.1426C124.124 87.1426 124.154 87.1489 124.182 87.1613L129.833 89.2539C129.863 89.2637 129.89 89.2791 129.913 89.2995C129.936 89.3198 129.954 89.3445 129.968 89.3722C129.98 89.4004 129.986 89.4309 129.986 89.4617C129.986 89.4925 129.98 89.523 129.968 89.5512L129.618 90.4993C129.608 90.5286 129.592 90.5557 129.572 90.5788C129.551 90.6018 129.526 90.6205 129.498 90.6335C129.47 90.6458 129.439 90.6522 129.408 90.6522C129.377 90.6522 129.347 90.6458 129.319 90.6335L127.145 89.8342L126.273 92.1906L128.447 92.9899C128.476 92.9997 128.503 93.0152 128.526 93.0355C128.549 93.0559 128.567 93.0806 128.58 93.1082C128.592 93.1364 128.599 93.1669 128.599 93.1977C128.599 93.2285 128.592 93.259 128.58 93.2873L128.23 94.2353C128.22 94.2646 128.205 94.2917 128.184 94.3148C128.163 94.3379 128.138 94.3565 128.11 94.3696C128.082 94.3819 128.051 94.3882 128.021 94.3882C127.99 94.3882 127.959 94.3819 127.931 94.3696L122.28 92.2769C122.251 92.2672 122.224 92.2517 122.201 92.2314C122.178 92.2111 122.159 92.1863 122.146 92.1586C122.133 92.1304 122.127 92.0999 122.127 92.0691C122.127 92.0383 122.133 92.0078 122.146 91.9796L122.497 91.0316C122.507 91.0022 122.522 90.9752 122.542 90.9521C122.563 90.929 122.588 90.9104 122.616 90.8974C122.644 90.8845 122.674 90.8776 122.705 90.877C122.736 90.8764 122.766 90.8822 122.795 90.8941L125.033 91.7254L125.906 89.369L123.668 88.5377C123.638 88.528 123.611 88.5125 123.588 88.4921C123.565 88.4718 123.547 88.4471 123.533 88.4194C123.521 88.3912 123.515 88.3607 123.515 88.3299C123.515 88.2991 123.521 88.2686 123.533 88.2404L123.885 87.2956Z" fill="white"/>
<path d="M120.988 94.4363C121.001 94.4084 121.019 94.3834 121.042 94.3628C121.064 94.3423 121.091 94.3266 121.12 94.3167C121.149 94.3068 121.18 94.303 121.211 94.3054C121.241 94.3078 121.271 94.3164 121.298 94.3308L126.708 96.9893C126.736 97.0015 126.761 97.0195 126.782 97.0421C126.803 97.0646 126.819 97.0913 126.829 97.1204C126.839 97.1498 126.842 97.1808 126.84 97.2115C126.837 97.2423 126.828 97.2722 126.813 97.2994L126.358 98.2378C126.345 98.2662 126.327 98.2917 126.305 98.3126C126.282 98.3336 126.255 98.3496 126.226 98.3595C126.197 98.3695 126.166 98.3732 126.135 98.3704C126.104 98.3676 126.075 98.3584 126.048 98.3433L120.639 95.6864C120.611 95.674 120.586 95.6559 120.565 95.6332C120.544 95.6105 120.528 95.5838 120.518 95.5547C120.508 95.5256 120.504 95.4947 120.507 95.464C120.509 95.4333 120.518 95.4034 120.532 95.3763L120.988 94.4363Z" fill="white"/>
<path d="M117.744 100.382C117.761 100.356 117.782 100.335 117.808 100.318C117.833 100.301 117.862 100.29 117.892 100.285C117.922 100.279 117.952 100.28 117.982 100.287C118.012 100.295 118.039 100.308 118.064 100.326L123 103.785C123.026 103.802 123.049 103.824 123.066 103.849C123.083 103.875 123.095 103.904 123.101 103.934C123.106 103.965 123.104 103.996 123.097 104.026C123.089 104.055 123.076 104.084 123.058 104.108L120.18 108.201C120.164 108.227 120.142 108.249 120.116 108.266C120.091 108.283 120.062 108.295 120.032 108.3C120.001 108.305 119.97 108.304 119.94 108.296C119.91 108.289 119.882 108.275 119.857 108.257L114.93 104.793C114.905 104.776 114.883 104.754 114.866 104.728C114.849 104.703 114.837 104.674 114.831 104.644C114.826 104.613 114.827 104.582 114.835 104.552C114.842 104.522 114.856 104.494 114.874 104.47L115.455 103.642C115.471 103.616 115.493 103.594 115.519 103.576C115.544 103.559 115.573 103.548 115.603 103.542C115.634 103.537 115.665 103.538 115.695 103.546C115.725 103.553 115.753 103.567 115.778 103.586L119.824 106.422L121.262 104.366L117.216 101.528C117.191 101.511 117.169 101.489 117.152 101.464C117.135 101.438 117.123 101.41 117.117 101.379C117.112 101.349 117.113 101.318 117.12 101.288C117.128 101.258 117.141 101.23 117.16 101.205L117.744 100.382Z" fill="white"/>
<path d="M111.533 108.21C111.861 107.834 112.267 107.533 112.722 107.328C113.12 107.154 113.561 107.106 113.986 107.192C114.469 107.304 114.914 107.54 115.278 107.876C115.478 108.052 115.675 108.228 115.868 108.407C116.062 108.586 116.257 108.768 116.452 108.957C116.814 109.291 117.083 109.713 117.232 110.183C117.355 110.606 117.348 111.056 117.211 111.475C117.051 111.944 116.789 112.372 116.445 112.729C116.119 113.099 115.716 113.393 115.264 113.59C114.858 113.761 114.41 113.807 113.977 113.722C113.498 113.614 113.056 113.38 112.698 113.044C112.49 112.869 112.289 112.693 112.095 112.514C111.902 112.335 111.712 112.152 111.525 111.964C111.159 111.629 110.887 111.206 110.735 110.734C110.613 110.315 110.623 109.869 110.764 109.455C110.928 108.99 111.191 108.566 111.533 108.21ZM112.413 109.019C112.183 109.252 112.054 109.567 112.055 109.895C112.055 110.215 112.231 110.542 112.583 110.877C112.774 111.071 112.957 111.248 113.133 111.407C113.309 111.567 113.498 111.734 113.702 111.906C113.899 112.095 114.139 112.233 114.401 112.309C114.608 112.366 114.827 112.36 115.03 112.29C115.237 112.213 115.421 112.085 115.566 111.919C115.717 111.759 115.827 111.564 115.886 111.351C115.941 111.144 115.93 110.924 115.854 110.723C115.752 110.47 115.596 110.242 115.396 110.057C115.205 109.871 115.021 109.698 114.847 109.539C114.672 109.379 114.482 109.208 114.277 109.027C113.91 108.707 113.568 108.568 113.251 108.587C113.09 108.601 112.933 108.646 112.789 108.72C112.646 108.794 112.518 108.896 112.413 109.019Z" fill="white"/>
<path d="M101.948 115.167C101.995 115.129 102.056 115.111 102.116 115.117C102.147 115.12 102.178 115.128 102.205 115.143C102.233 115.158 102.257 115.179 102.276 115.204L102.941 116.038L108.159 111.882C108.182 111.861 108.209 111.846 108.239 111.837C108.268 111.827 108.299 111.824 108.33 111.827C108.361 111.83 108.392 111.84 108.42 111.855C108.447 111.871 108.471 111.893 108.49 111.918L112.248 116.63C112.268 116.653 112.283 116.68 112.292 116.71C112.301 116.739 112.304 116.77 112.301 116.801C112.298 116.832 112.288 116.862 112.273 116.89C112.258 116.918 112.237 116.942 112.211 116.961L111.422 117.59C111.398 117.61 111.371 117.625 111.341 117.634C111.312 117.643 111.281 117.646 111.251 117.643C111.219 117.64 111.189 117.631 111.161 117.615C111.134 117.6 111.11 117.579 111.091 117.554L108.009 113.69L106.718 114.719L109.801 118.583C109.821 118.606 109.836 118.634 109.845 118.663C109.854 118.693 109.857 118.724 109.853 118.754C109.851 118.783 109.842 118.811 109.828 118.837C109.814 118.863 109.795 118.885 109.772 118.903L108.972 119.542C108.949 119.562 108.922 119.577 108.892 119.586C108.863 119.595 108.832 119.598 108.801 119.595C108.77 119.592 108.739 119.583 108.712 119.567C108.684 119.552 108.66 119.531 108.642 119.506L105.569 115.627L104.29 116.65L107.371 120.514C107.39 120.537 107.405 120.564 107.413 120.593C107.422 120.622 107.425 120.652 107.422 120.682C107.418 120.712 107.409 120.74 107.394 120.767C107.379 120.793 107.359 120.816 107.335 120.834L106.544 121.464C106.521 121.484 106.493 121.498 106.464 121.508C106.435 121.517 106.404 121.52 106.373 121.517C106.342 121.514 106.311 121.504 106.284 121.489C106.256 121.473 106.232 121.452 106.213 121.427L103.133 117.563L102.792 117.835C102.769 117.855 102.742 117.871 102.712 117.88C102.683 117.889 102.652 117.891 102.621 117.888C102.59 117.885 102.559 117.876 102.532 117.86C102.504 117.845 102.48 117.824 102.461 117.798L101.12 116.116C101.1 116.093 101.084 116.066 101.075 116.037C101.066 116.007 101.062 115.976 101.066 115.945C101.069 115.914 101.079 115.884 101.095 115.856C101.111 115.829 101.132 115.805 101.157 115.786L101.948 115.167Z" fill="white"/>
<path d="M100.555 117.664C100.577 117.651 100.602 117.642 100.628 117.64C100.654 117.637 100.681 117.64 100.705 117.648C100.73 117.655 100.752 117.666 100.772 117.682C100.792 117.697 100.808 117.716 100.82 117.738C100.835 117.762 100.846 117.788 100.854 117.815L101.893 124.086C101.913 124.154 101.913 124.226 101.893 124.294C101.863 124.371 101.807 124.435 101.733 124.473L100.702 125.061C100.632 125.108 100.547 125.126 100.464 125.113C100.394 125.099 100.33 125.065 100.28 125.015L95.3947 120.938C95.3758 120.917 95.3591 120.894 95.3451 120.87C95.321 120.826 95.3142 120.775 95.3259 120.726C95.3314 120.7 95.3424 120.676 95.3581 120.655C95.3738 120.634 95.3939 120.617 95.417 120.604L96.2547 120.125C96.2849 120.104 96.319 120.089 96.3549 120.081C96.3909 120.074 96.428 120.073 96.4641 120.08C96.5127 120.091 96.5582 120.113 96.5968 120.144L97.4569 120.847L99.7286 119.551L99.5591 118.451C99.553 118.402 99.5574 118.353 99.5719 118.306C99.5973 118.235 99.6497 118.178 99.7174 118.146L100.555 117.664ZM100.024 120.755L98.3569 121.714L100.51 123.56L100.024 120.755Z" fill="white"/>
<path d="M91.3477 122.269C91.8124 122.062 92.3179 121.963 92.8264 121.978C93.259 121.999 93.6753 122.15 94.0206 122.411C94.3963 122.707 94.6925 123.092 94.8823 123.53C94.9889 123.763 95.0955 124.013 95.202 124.282C95.3086 124.55 95.4114 124.809 95.5106 125.057C95.6831 125.502 95.7409 125.984 95.6784 126.458C95.6112 126.888 95.4182 127.29 95.1237 127.612C94.7775 127.979 94.3521 128.263 93.88 128.441C93.5274 128.591 93.1545 128.686 92.7737 128.724C92.4424 128.758 92.1077 128.729 91.7873 128.638C91.4937 128.555 91.2212 128.41 90.988 128.213C90.7546 128.009 90.569 127.756 90.4445 127.473C90.4334 127.449 90.4276 127.424 90.4276 127.398C90.4276 127.372 90.4334 127.346 90.4445 127.322C90.4663 127.273 90.5065 127.235 90.5564 127.215L91.5347 126.816C91.592 126.788 91.6574 126.782 91.7186 126.8C91.7833 126.828 91.8388 126.874 91.8785 126.932C92.0406 127.191 92.2959 127.377 92.5914 127.452C92.8719 127.492 93.1579 127.451 93.4163 127.335C93.7308 127.224 93.9896 126.995 94.1373 126.696C94.2631 126.417 94.2423 126.047 94.075 125.588C93.8991 125.113 93.702 124.633 93.4835 124.149C93.2821 123.703 93.0375 123.427 92.7513 123.316C92.4371 123.207 92.0925 123.226 91.7921 123.369C91.5248 123.468 91.2914 123.642 91.1191 123.869C90.9605 124.128 90.91 124.439 90.9784 124.734C90.9939 124.806 90.986 124.881 90.956 124.948C90.9223 125.002 90.8716 125.042 90.8121 125.064L89.8338 125.463C89.8086 125.474 89.7814 125.48 89.7539 125.48C89.7263 125.48 89.6991 125.474 89.6739 125.463C89.6493 125.454 89.6268 125.44 89.6081 125.422C89.5893 125.404 89.5747 125.382 89.5652 125.358C89.4547 125.068 89.4099 124.758 89.4341 124.45C89.4601 124.147 89.5511 123.853 89.7011 123.588C89.866 123.299 90.0828 123.043 90.3405 122.833C90.6459 122.596 90.9854 122.405 91.3477 122.269Z" fill="white"/>
<path d="M85.3648 124.42C85.3944 124.411 85.4255 124.408 85.4563 124.411C85.4871 124.415 85.5168 124.424 85.5438 124.439C85.5703 124.455 85.5933 124.476 85.6114 124.5C85.6296 124.525 85.6425 124.553 85.6493 124.583L86.9539 129.379L88.5829 128.936C88.611 128.928 88.6406 128.926 88.6697 128.929C88.6989 128.933 88.727 128.942 88.7523 128.957C88.778 128.971 88.8006 128.991 88.8184 129.014C88.8363 129.038 88.8492 129.064 88.8562 129.093L89.0752 129.892C89.0843 129.922 89.0873 129.953 89.084 129.984C89.0807 130.015 89.0712 130.044 89.056 130.071C89.0417 130.097 89.0223 130.12 88.9989 130.138C88.9756 130.155 88.9488 130.168 88.9202 130.175L84.233 131.454C84.2034 131.463 84.1722 131.466 84.1415 131.463C84.1107 131.46 84.0809 131.45 84.0539 131.435C84.0274 131.42 84.0044 131.399 83.9863 131.374C83.9682 131.349 83.9553 131.321 83.9484 131.291L83.7294 130.492C83.7212 130.464 83.7187 130.434 83.7223 130.405C83.7259 130.376 83.7354 130.348 83.7502 130.322C83.7657 130.296 83.7865 130.273 83.8112 130.255C83.836 130.237 83.8641 130.224 83.894 130.217L85.5135 129.776L84.209 124.98C84.1998 124.951 84.1967 124.92 84.1998 124.889C84.203 124.859 84.2123 124.83 84.2273 124.803C84.2423 124.776 84.2626 124.753 84.2869 124.734C84.3113 124.716 84.3392 124.703 84.3689 124.695L85.3648 124.42Z" fill="white"/>
<path d="M80.3806 125.646C80.4115 125.64 80.4432 125.642 80.4735 125.65C80.5039 125.658 80.5321 125.672 80.5565 125.692C80.5807 125.712 80.6008 125.736 80.6156 125.763C80.6304 125.791 80.6397 125.821 80.6428 125.852L81.4613 131.823C81.4666 131.853 81.4652 131.885 81.4572 131.915C81.4492 131.945 81.4348 131.973 81.4149 131.997C81.3958 132.022 81.3717 132.042 81.3442 132.057C81.3166 132.072 81.2863 132.081 81.2551 132.083L80.2544 132.221C80.224 132.227 80.1928 132.226 80.1628 132.219C80.1328 132.212 80.1046 132.198 80.08 132.18C80.0555 132.161 80.0351 132.137 80.0202 132.11C80.0054 132.083 79.9964 132.053 79.9938 132.023L79.4486 128.055L77.1817 132.475C77.156 132.523 77.1225 132.567 77.0826 132.605C77.0347 132.648 76.9741 132.674 76.91 132.68L76.01 132.803C75.9796 132.808 75.9484 132.808 75.9184 132.801C75.8884 132.794 75.8602 132.78 75.8356 132.762C75.8111 132.743 75.7907 132.719 75.7759 132.692C75.761 132.665 75.752 132.635 75.7494 132.605L74.9293 126.634C74.9239 126.604 74.9247 126.573 74.9319 126.543C74.939 126.513 74.9523 126.485 74.9708 126.461C74.9899 126.436 75.014 126.415 75.0415 126.4C75.069 126.385 75.0994 126.376 75.1307 126.373L76.1331 126.236C76.193 126.227 76.2537 126.243 76.3025 126.279C76.3284 126.297 76.35 126.321 76.3658 126.349C76.3815 126.376 76.391 126.407 76.3936 126.439L76.9212 130.288L79.204 125.988C79.222 125.942 79.248 125.901 79.2808 125.865C79.3308 125.816 79.3966 125.787 79.4662 125.783L80.3806 125.646Z" fill="white"/>
<path d="M71.0193 126.523C71.0786 126.523 71.1358 126.545 71.1791 126.586C71.2006 126.606 71.2176 126.631 71.2292 126.659C71.2407 126.686 71.2466 126.716 71.2463 126.746L71.3278 131.714L73.0144 131.687C73.0738 131.686 73.1313 131.708 73.1742 131.749C73.1955 131.77 73.2124 131.795 73.2239 131.823C73.2355 131.85 73.2414 131.88 73.2414 131.909L73.2542 132.744C73.2551 132.773 73.25 132.803 73.2393 132.83C73.2286 132.858 73.2124 132.883 73.1918 132.904C73.1716 132.926 73.1469 132.943 73.1193 132.955C73.0917 132.966 73.0619 132.972 73.0319 132.971L68.1753 133.051C68.116 133.051 68.0588 133.029 68.0154 132.988C67.994 132.968 67.9769 132.943 67.9651 132.915C67.9533 132.888 67.947 132.858 67.9467 132.829L67.9339 131.994C67.9323 131.964 67.937 131.935 67.9478 131.907C67.9585 131.88 67.975 131.855 67.9962 131.834C68.0169 131.813 68.0418 131.796 68.0692 131.784C68.0967 131.773 68.1263 131.767 68.1561 131.767L69.8331 131.74L69.7531 126.77C69.7514 126.739 69.7561 126.708 69.7668 126.679C69.7775 126.65 69.7941 126.624 69.8155 126.602C69.8578 126.559 69.9153 126.535 69.9754 126.535L71.0193 126.523Z" fill="white"/>
<path d="M65.8898 126.423C65.9207 126.425 65.9508 126.434 65.9783 126.448C66.0058 126.462 66.0301 126.482 66.0497 126.506C66.0688 126.53 66.0829 126.558 66.0908 126.588C66.0988 126.617 66.1006 126.648 66.096 126.679L65.4454 132.671C65.4431 132.702 65.4346 132.732 65.4203 132.759C65.406 132.787 65.3863 132.811 65.3622 132.83C65.3382 132.85 65.3105 132.864 65.2808 132.872C65.2511 132.88 65.22 132.881 65.1896 132.877L64.1857 132.768C64.1547 132.766 64.1244 132.758 64.0969 132.743C64.0694 132.729 64.0452 132.709 64.0258 132.685C64.0067 132.661 63.9927 132.633 63.9847 132.603C63.9768 132.574 63.975 132.543 63.9794 132.512L64.2016 130.466L63.1145 130.348C62.3578 130.267 61.7893 130.033 61.4088 129.646C61.0283 129.259 60.8754 128.721 60.95 128.033C60.9861 127.651 61.1205 127.285 61.3401 126.97C61.5631 126.663 61.8726 126.431 62.2289 126.302C62.6585 126.154 63.117 126.109 63.567 126.172L65.8898 126.423ZM64.5293 127.441L63.487 127.328C63.3612 127.306 63.2321 127.313 63.1091 127.347C62.986 127.381 62.8722 127.443 62.7756 127.526C62.5885 127.701 62.4743 127.94 62.4559 128.196C62.4315 128.319 62.4331 128.447 62.4607 128.569C62.4882 128.692 62.541 128.808 62.6158 128.909C62.7875 129.09 63.0232 129.198 63.2728 129.208L64.3151 129.321L64.5293 127.441Z" fill="white"/>
<path d="M49.223 124.481C49.4107 124.548 49.5765 124.664 49.7024 124.818C49.8255 124.971 49.907 125.152 49.9389 125.346C49.9727 125.538 49.9533 125.737 49.883 125.919C49.816 126.109 49.6962 126.275 49.5378 126.399C49.385 126.518 49.2049 126.598 49.0137 126.631C48.8183 126.663 48.6179 126.643 48.4329 126.572C48.2479 126.502 48.0849 126.383 47.9606 126.229C47.8429 126.077 47.7635 125.898 47.7289 125.708C47.6927 125.516 47.7115 125.317 47.7832 125.135C47.8525 124.95 47.9714 124.787 48.1268 124.665C48.279 124.545 48.4584 124.463 48.6493 124.428C48.8417 124.392 49.0405 124.41 49.223 124.481Z" fill="white"/>
<path d="M38.8968 117.299C38.9456 117.335 38.9784 117.388 38.9879 117.448C38.9942 117.479 38.9938 117.51 38.9866 117.541C38.9794 117.571 38.9657 117.599 38.9464 117.624L35.3766 122.481C35.3587 122.507 35.335 122.53 35.3073 122.546C35.2797 122.562 35.2487 122.572 35.2168 122.575C35.1566 122.583 35.0958 122.567 35.0473 122.53L34.3519 122.02C34.3193 122 34.2914 121.973 34.2699 121.942C34.2484 121.91 34.2338 121.874 34.2272 121.836C34.2208 121.788 34.2171 121.738 34.216 121.689L34.6956 118.147L31.4567 119.661C31.4124 119.678 31.3663 119.69 31.3193 119.697C31.2816 119.702 31.2432 119.699 31.2068 119.688C31.1705 119.677 31.1368 119.659 31.1082 119.633L30.4128 119.123C30.3865 119.105 30.3644 119.081 30.3478 119.054C30.3313 119.026 30.3208 118.996 30.3169 118.964C30.3124 118.933 30.3141 118.902 30.3221 118.872C30.3301 118.843 30.3441 118.815 30.3633 118.791L33.9314 113.934C33.949 113.909 33.9715 113.887 33.9976 113.871C34.0237 113.854 34.0528 113.843 34.0833 113.838C34.1137 113.834 34.1448 113.836 34.1745 113.844C34.2042 113.852 34.2319 113.866 34.256 113.885L35.0185 114.444C35.0423 114.461 35.0623 114.483 35.0774 114.508C35.0925 114.533 35.1024 114.561 35.1064 114.59C35.111 114.62 35.1092 114.651 35.1012 114.681C35.0933 114.711 35.0792 114.738 35.0601 114.762L32.8428 117.782L35.0985 116.702C35.1564 116.674 35.2186 116.658 35.2823 116.652C35.353 116.648 35.4225 116.671 35.4773 116.716L35.829 116.973C35.888 117.013 35.9302 117.072 35.9473 117.141C35.9616 117.204 35.9649 117.268 35.9569 117.331L35.5988 119.808L37.8177 116.789C37.8348 116.764 37.8569 116.742 37.8828 116.725C37.9086 116.708 37.9376 116.697 37.968 116.692C38.0247 116.685 38.082 116.699 38.1279 116.734L38.8968 117.299Z" fill="white"/>
<path d="M32.2553 112.123C32.2781 112.143 32.2965 112.168 32.3094 112.195C32.3224 112.223 32.3295 112.253 32.3304 112.283C32.3305 112.313 32.3245 112.342 32.3126 112.37C32.3008 112.397 32.2835 112.422 32.2617 112.443L28.0812 116.785C28.0612 116.807 28.0366 116.826 28.0091 116.839C27.9816 116.852 27.9518 116.859 27.9214 116.86C27.8611 116.859 27.8037 116.834 27.7615 116.791L24.7369 113.877C24.7139 113.857 24.6952 113.832 24.682 113.805C24.6688 113.777 24.6614 113.747 24.6602 113.717C24.662 113.656 24.6873 113.599 24.7305 113.557L25.2453 113.023C25.2656 113.001 25.2903 112.983 25.3178 112.972C25.3454 112.96 25.3751 112.954 25.4051 112.954C25.4351 112.955 25.4646 112.961 25.4921 112.973C25.5195 112.986 25.5443 113.003 25.565 113.025L27.7296 115.103L28.7399 114.054L26.7224 112.112C26.6997 112.092 26.6813 112.067 26.6684 112.04C26.6555 112.012 26.6483 111.982 26.6473 111.952C26.6477 111.922 26.6539 111.893 26.6657 111.865C26.6775 111.838 26.6946 111.813 26.716 111.792L27.1956 111.298C27.216 111.276 27.2408 111.259 27.2683 111.247C27.2958 111.235 27.3255 111.229 27.3555 111.229C27.3853 111.23 27.4148 111.236 27.4422 111.248C27.4697 111.26 27.4945 111.277 27.5153 111.298L29.5328 113.24L30.5735 112.158L28.3562 110.024C28.3113 109.982 28.2844 109.925 28.2811 109.864C28.2824 109.804 28.307 109.747 28.3498 109.704L28.8582 109.177C28.8783 109.154 28.9028 109.135 28.9303 109.123C28.9578 109.11 28.9877 109.102 29.018 109.102C29.048 109.101 29.0776 109.108 29.1051 109.119C29.1326 109.131 29.1574 109.149 29.1779 109.17L32.2553 112.123Z" fill="white"/>
<path d="M27.5313 107.388C27.5515 107.411 27.5667 107.439 27.5761 107.468C27.5854 107.497 27.5887 107.528 27.5857 107.559C27.5832 107.591 27.5739 107.621 27.5584 107.649C27.543 107.676 27.5217 107.7 27.4961 107.719L22.8025 111.5C22.7795 111.52 22.7526 111.535 22.7235 111.545C22.6943 111.554 22.6635 111.557 22.6331 111.554C22.6017 111.551 22.5713 111.541 22.5438 111.526C22.5163 111.51 22.4923 111.49 22.4732 111.465L21.8337 110.678C21.8144 110.655 21.7999 110.628 21.7911 110.6C21.7824 110.571 21.7796 110.541 21.7829 110.511C21.7861 110.481 21.7955 110.452 21.8103 110.426C21.825 110.399 21.845 110.377 21.8689 110.358L23.6738 108.904L22.0975 106.947L20.2927 108.402C20.2695 108.421 20.2427 108.435 20.214 108.443C20.1853 108.452 20.1552 108.454 20.1254 108.451C20.0956 108.448 20.0668 108.439 20.0406 108.424C20.0145 108.41 19.9915 108.39 19.9729 108.366L19.3335 107.578C19.3141 107.555 19.2996 107.529 19.2909 107.5C19.2821 107.471 19.2793 107.441 19.2826 107.411C19.2859 107.381 19.2952 107.352 19.31 107.326C19.3248 107.3 19.3447 107.277 19.3686 107.259L24.0622 103.479C24.0852 103.459 24.1121 103.444 24.1413 103.434C24.1705 103.425 24.2012 103.422 24.2317 103.425C24.2631 103.428 24.2935 103.437 24.3211 103.453C24.3486 103.468 24.3726 103.489 24.3916 103.515L25.031 104.301C25.0504 104.324 25.0649 104.351 25.0736 104.38C25.0824 104.408 25.0852 104.439 25.0819 104.468C25.0786 104.498 25.0693 104.527 25.0545 104.553C25.0397 104.58 25.0198 104.603 24.9958 104.621L23.1334 106.122L24.7097 108.079L26.5721 106.577C26.5951 106.558 26.6218 106.544 26.6506 106.535C26.6794 106.526 26.7096 106.523 26.7395 106.527C26.7694 106.53 26.7983 106.539 26.8245 106.554C26.8507 106.569 26.8736 106.589 26.8918 106.613L27.5313 107.388Z" fill="white"/>
<path d="M22.8814 101.237C22.8991 101.262 22.9115 101.29 22.9178 101.321C22.9241 101.351 22.9243 101.382 22.9182 101.412C22.9116 101.443 22.8989 101.471 22.8807 101.496C22.8625 101.521 22.8394 101.542 22.8127 101.558L17.761 104.845C17.736 104.863 17.7075 104.875 17.6773 104.882C17.6471 104.888 17.616 104.888 17.5859 104.881C17.5558 104.875 17.5273 104.862 17.5024 104.844C17.4775 104.826 17.4567 104.803 17.4413 104.776L16.8689 103.898C16.8339 103.847 16.8207 103.784 16.8322 103.722C16.8392 103.692 16.8521 103.664 16.8703 103.639C16.8884 103.614 16.9113 103.593 16.9377 103.577L21.9894 100.292C22.0145 100.274 22.0431 100.261 22.0734 100.255C22.1037 100.248 22.135 100.248 22.1652 100.255C22.1952 100.262 22.2236 100.274 22.2486 100.292C22.2735 100.31 22.2947 100.333 22.3107 100.359L22.8814 101.237Z" fill="white"/>
<path d="M19.4411 95.4105C19.4551 95.438 19.4633 95.4681 19.4649 95.499C19.4666 95.5298 19.4617 95.5607 19.4507 95.5895C19.4393 95.6182 19.4222 95.6443 19.4005 95.6663C19.3788 95.6883 19.353 95.7057 19.3244 95.7174L13.8267 98.1841C13.7989 98.1974 13.7688 98.2052 13.7381 98.2068C13.7074 98.2084 13.6766 98.204 13.6476 98.1937C13.6188 98.1826 13.5925 98.1656 13.5705 98.1439C13.5485 98.1222 13.5313 98.0961 13.5197 98.0674L11.4735 93.5081C11.4613 93.4798 11.4551 93.4494 11.4551 93.4186C11.4551 93.3878 11.4613 93.3574 11.4735 93.3291C11.4843 93.3003 11.5009 93.274 11.5224 93.252C11.5439 93.23 11.5697 93.2127 11.5982 93.2012L17.0975 90.7345C17.1251 90.7208 17.1553 90.7129 17.186 90.7113C17.2168 90.7096 17.2476 90.7142 17.2766 90.7249C17.3342 90.7484 17.3802 90.7938 17.4044 90.8512L17.8169 91.7736C17.8309 91.8008 17.839 91.8307 17.8406 91.8613C17.8423 91.8919 17.8375 91.9224 17.8265 91.951C17.8153 91.9799 17.7984 92.0061 17.7766 92.0281C17.7549 92.0501 17.7289 92.0674 17.7002 92.0789L13.192 94.1028L14.22 96.3953L18.7297 94.3714C18.7572 94.3577 18.7873 94.3499 18.8179 94.3484C18.8486 94.3469 18.8793 94.3518 18.908 94.3628C18.9366 94.3738 18.9628 94.3905 18.9846 94.4121C19.0065 94.4337 19.0237 94.4596 19.0351 94.4881L19.4411 95.4105Z" fill="white"/>
<path d="M15.8971 86.0677C16.0505 86.5429 16.1006 87.0455 16.0441 87.5417C15.9884 87.972 15.802 88.3748 15.5102 88.6959C15.166 89.052 14.7352 89.3125 14.26 89.452C14.0075 89.533 13.7549 89.6114 13.5023 89.687C13.2497 89.7622 12.9939 89.8341 12.7302 89.906C12.2574 90.0454 11.7564 90.0587 11.277 89.9444C10.851 89.8336 10.4686 89.5961 10.1803 89.2634C9.86944 88.8805 9.63734 88.4398 9.49742 87.9668C9.3575 87.4938 9.3125 86.9978 9.36501 86.5073C9.4266 86.071 9.61697 85.663 9.91176 85.3355C10.2496 84.9767 10.6783 84.716 11.1523 84.581C11.4113 84.4915 11.666 84.4094 11.9165 84.3348C12.169 84.2597 12.4232 84.1909 12.6822 84.127C13.157 83.9851 13.6607 83.9696 14.1434 84.0822C14.5627 84.1924 14.9381 84.4284 15.2192 84.7584C15.5362 85.1413 15.7674 85.5878 15.8971 86.0677ZM14.7492 86.4066C14.6682 86.0896 14.4646 85.8176 14.1833 85.6505C13.9062 85.4906 13.5332 85.4735 13.0643 85.5993C12.8005 85.6648 12.5543 85.7304 12.3257 85.7975C12.0971 85.8647 11.8589 85.943 11.6063 86.0309C11.3436 86.1037 11.1019 86.238 10.9013 86.4226C10.7463 86.5709 10.6399 86.7626 10.596 86.9725C10.5555 87.1895 10.5698 87.4132 10.6375 87.6232C10.6965 87.8369 10.8062 88.0332 10.9573 88.1955C11.1072 88.3496 11.3019 88.4525 11.5136 88.4897C11.7804 88.5329 12.0535 88.5159 12.3129 88.4401C12.5687 88.3697 12.8117 88.301 13.0403 88.2339C13.2689 88.1667 13.5199 88.0916 13.7709 88.0085C14.2281 87.8539 14.5292 87.6354 14.6741 87.353C14.7487 87.2081 14.7938 87.0498 14.8067 86.8873C14.8196 86.7249 14.8001 86.5615 14.7492 86.4066Z" fill="white"/>
<path d="M14.8594 74.2774C14.8676 74.3373 14.8522 74.3982 14.8162 74.4469C14.7977 74.4727 14.7738 74.4942 14.7462 74.5099C14.7186 74.5256 14.688 74.5352 14.6563 74.538L13.5996 74.6786L14.4805 81.2954C14.4859 81.3258 14.4851 81.3569 14.4779 81.3869C14.4708 81.4169 14.4575 81.4451 14.4389 81.4697C14.42 81.4947 14.3959 81.5153 14.3684 81.5302C14.3408 81.5451 14.3103 81.5539 14.279 81.556L8.30493 82.3553C8.27459 82.3606 8.2435 82.3596 8.21355 82.3525C8.18359 82.3453 8.15539 82.3321 8.13069 82.3138C8.1062 82.2944 8.08593 82.2702 8.07109 82.2427C8.05625 82.2152 8.04715 82.185 8.04435 82.1539L7.91167 81.1515C7.90642 81.1212 7.9074 81.0901 7.91454 81.0602C7.92169 81.0302 7.93485 81.002 7.95324 80.9773C7.97264 80.9528 7.99681 80.9326 8.02429 80.9177C8.05178 80.9029 8.08199 80.8938 8.1131 80.891L13.0113 80.2387L12.7939 78.6017L7.89569 79.2556C7.86525 79.2611 7.83397 79.2601 7.80393 79.2526C7.7739 79.2452 7.74579 79.2315 7.72145 79.2124C7.69784 79.1952 7.6781 79.1732 7.66351 79.1479C7.64891 79.1225 7.63979 79.0944 7.63671 79.0653L7.50083 78.055C7.49608 78.0245 7.49744 77.9934 7.50485 77.9635C7.51226 77.9336 7.52558 77.9054 7.544 77.8807C7.56313 77.856 7.58722 77.8355 7.61476 77.8206C7.64229 77.8058 7.67266 77.7968 7.70386 77.7944L12.6021 77.1406L12.3847 75.5148L7.48643 76.167C7.45608 76.1722 7.425 76.1713 7.39504 76.1641C7.36509 76.157 7.33689 76.1438 7.31218 76.1254C7.2877 76.106 7.26743 76.0819 7.25259 76.0544C7.23775 76.0269 7.22864 75.9967 7.22585 75.9656L7.09317 74.9632C7.08792 74.9329 7.08889 74.9018 7.09604 74.8718C7.10319 74.8419 7.11635 74.8137 7.13474 74.789C7.15413 74.7645 7.17831 74.7442 7.20579 74.7294C7.23327 74.7145 7.26349 74.7054 7.2946 74.7027L12.1944 74.0504L12.1369 73.6172C12.1315 73.5871 12.1324 73.5562 12.1395 73.5265C12.1467 73.4967 12.1599 73.4688 12.1785 73.4445C12.1975 73.4195 12.2215 73.3988 12.2491 73.3837C12.2766 73.3685 12.307 73.3593 12.3383 73.3566L14.4709 73.0736C14.5012 73.0684 14.5323 73.0694 14.5623 73.0765C14.5923 73.0836 14.6204 73.0968 14.6451 73.1152C14.6696 73.1346 14.6899 73.1588 14.7047 73.1862C14.7196 73.2137 14.7287 73.244 14.7315 73.2751L14.8594 74.2774Z" fill="white"/>
<path d="M13.4403 71.7866C13.4409 71.8129 13.4356 71.8391 13.4248 71.8632C13.4141 71.8872 13.3981 71.9086 13.378 71.9257C13.3407 71.9593 13.2923 71.9781 13.2421 71.9784C13.2141 71.9775 13.1862 71.9737 13.159 71.9672L7.24401 69.638C7.17629 69.6167 7.1159 69.5768 7.06975 69.5229C7.01901 69.4561 6.99456 69.3731 7.00102 69.2895L7.025 68.1033C7.02218 68.0193 7.05067 67.9373 7.10493 67.8731C7.15176 67.8198 7.21362 67.7819 7.28238 67.7644L13.2885 65.6862C13.3166 65.6827 13.3451 65.6827 13.3732 65.6862C13.398 65.6864 13.4226 65.6916 13.4454 65.7015C13.4682 65.7114 13.4887 65.7257 13.5059 65.7437C13.5252 65.7615 13.5404 65.7833 13.5503 65.8077C13.5603 65.832 13.5647 65.8582 13.5634 65.8844L13.5426 66.8436C13.5453 66.8803 13.5405 66.9172 13.5287 66.952C13.5169 66.9869 13.4983 67.019 13.4739 67.0466C13.4401 67.0822 13.3985 67.1096 13.3524 67.1265L12.3053 67.5038L12.2509 70.1192L13.2821 70.538C13.3271 70.5582 13.3675 70.5876 13.4004 70.6244C13.4236 70.6527 13.441 70.6854 13.4514 70.7205C13.4618 70.7557 13.4651 70.7926 13.4611 70.829L13.4403 71.7866ZM11.0631 69.7451L11.1031 67.8268L8.41261 68.7268L11.0631 69.7451Z" fill="white"/>
<path d="M14.2146 61.5144C14.154 62.0198 13.9802 62.505 13.7063 62.934C13.4659 63.2928 13.1234 63.5712 12.7231 63.7333C12.2747 63.9025 11.7912 63.9575 11.3163 63.8932C11.0637 63.8612 10.7951 63.8244 10.5074 63.7813C10.2196 63.7381 9.94625 63.6933 9.68408 63.6486C9.21322 63.5684 8.77011 63.3711 8.39558 63.0747C8.06001 62.7961 7.81419 62.4246 7.68898 62.0068C7.55133 61.5217 7.52564 61.0117 7.61384 60.5153C7.665 60.1363 7.77277 59.7671 7.93357 59.4202C8.07512 59.1197 8.27198 58.8485 8.51388 58.6209C8.73602 58.4088 9.00274 58.2491 9.29454 58.1534C9.58635 58.0577 9.89586 58.0284 10.2004 58.0677C10.2265 58.0708 10.2517 58.0796 10.274 58.0934C10.2964 58.1072 10.3155 58.1257 10.3299 58.1477C10.3598 58.1917 10.3718 58.2454 10.3635 58.2979L10.2036 59.3434C10.1961 59.4047 10.1672 59.4613 10.1221 59.5033C10.0643 59.5461 9.99559 59.5716 9.92387 59.5768C9.61843 59.5828 9.32726 59.7072 9.11177 59.9238C8.93455 60.144 8.82366 60.4101 8.79204 60.6911C8.72439 61.0169 8.78755 61.3563 8.96789 61.6359C9.14374 61.8869 9.46986 62.0579 9.95106 62.1491C10.4322 62.2402 10.963 62.3201 11.4905 62.3809C11.9765 62.4352 12.3399 62.3681 12.5808 62.1794C12.8353 61.9645 12.9959 61.6589 13.0284 61.3274C13.0797 61.0472 13.0497 60.7582 12.9421 60.4945C12.8022 60.2252 12.5614 60.0223 12.2723 59.9301C12.2026 59.906 12.1423 59.8608 12.0996 59.8007C12.0712 59.7444 12.0628 59.6801 12.0757 59.6184L12.2355 58.5729C12.2389 58.5468 12.2475 58.5217 12.2607 58.4989C12.2738 58.4762 12.2914 58.4562 12.3122 58.4402C12.3321 58.4233 12.3554 58.4109 12.3805 58.404C12.4057 58.3971 12.432 58.3958 12.4577 58.4003C12.7604 58.4525 13.0476 58.5716 13.2984 58.7489C13.5493 58.9261 13.7574 59.1571 13.9077 59.425C14.0726 59.7148 14.1811 60.0332 14.2274 60.3634C14.2815 60.7455 14.2771 61.1336 14.2146 61.5144Z" fill="white"/>
<path d="M15.4283 55.2827C15.4209 55.3126 15.4076 55.3407 15.3892 55.3654C15.3708 55.3901 15.3477 55.4109 15.3211 55.4265C15.2661 55.4557 15.2018 55.4621 15.1421 55.4441L10.3558 54.1061L9.90178 55.7319C9.89434 55.7604 9.88135 55.787 9.86359 55.8105C9.84582 55.8339 9.8236 55.8536 9.79821 55.8685C9.77282 55.8833 9.74476 55.893 9.71563 55.897C9.68649 55.901 9.65684 55.8992 9.6284 55.8918L8.82908 55.6663C8.79897 55.6595 8.77062 55.6464 8.74585 55.628C8.72107 55.6095 8.70042 55.5861 8.68519 55.5592C8.67029 55.5339 8.66089 55.5057 8.65758 55.4765C8.65428 55.4473 8.65714 55.4178 8.66601 55.3898L9.97211 50.7105C9.97951 50.6806 9.99278 50.6525 10.0112 50.6278C10.0296 50.6031 10.0527 50.5823 10.0792 50.5667C10.1343 50.5375 10.1986 50.5311 10.2583 50.5491L11.0576 50.7745C11.0857 50.7816 11.1121 50.7945 11.1349 50.8124C11.1578 50.8303 11.1766 50.8528 11.1903 50.8784C11.2053 50.9054 11.2148 50.9352 11.2181 50.966C11.2214 50.9968 11.2185 51.0279 11.2095 51.0575L10.757 52.6737L15.5434 54.0102C15.5733 54.0176 15.6014 54.0308 15.6261 54.0492C15.6508 54.0676 15.6716 54.0907 15.6872 54.1173C15.702 54.1444 15.7112 54.1742 15.7143 54.205C15.7173 54.2358 15.7141 54.2668 15.7048 54.2963L15.4283 55.2827Z" fill="white"/>
<path d="M16.9303 50.3788C16.9186 50.4077 16.9011 50.4339 16.8788 50.4556C16.8565 50.4774 16.8299 50.4942 16.8008 50.5051C16.7731 50.5166 16.7435 50.5225 16.7136 50.5225C16.6837 50.5225 16.6541 50.5166 16.6265 50.5051L11.0792 48.1487C11.05 48.1376 11.0236 48.1203 11.0017 48.098C10.9799 48.0756 10.9633 48.0487 10.9529 48.0192C10.9415 47.9916 10.9355 47.962 10.9355 47.9321C10.9355 47.9022 10.9415 47.8726 10.9529 47.845L11.3478 46.9146C11.3589 46.886 11.3757 46.8599 11.3971 46.8379C11.4185 46.816 11.4442 46.7985 11.4725 46.7867C11.5008 46.7748 11.5313 46.7687 11.562 46.7687C11.5927 46.7687 11.6232 46.7748 11.6515 46.7867L15.3396 48.3533L12.705 44.1425C12.6763 44.0929 12.6558 44.0389 12.6443 43.9827C12.6323 43.9194 12.6407 43.8539 12.6683 43.7956L13.0232 42.9595C13.0343 42.9309 13.0511 42.9049 13.0725 42.8829C13.0939 42.8609 13.1196 42.8435 13.1479 42.8316C13.176 42.819 13.2065 42.8125 13.2374 42.8125C13.2683 42.8125 13.2988 42.819 13.3269 42.8316L18.8742 45.188C18.903 45.1992 18.9293 45.2162 18.9513 45.2379C18.9733 45.2596 18.9906 45.2856 19.0021 45.3143C19.0143 45.3423 19.0206 45.3725 19.0206 45.4031C19.0206 45.4336 19.0143 45.4638 19.0021 45.4918L18.604 46.443C18.581 46.4991 18.5368 46.544 18.4809 46.5677C18.4523 46.5806 18.4212 46.5874 18.3898 46.5874C18.3584 46.5874 18.3273 46.5806 18.2987 46.5677L14.7241 45.049L17.2468 49.2134C17.2765 49.2515 17.2988 49.2949 17.3123 49.3413C17.328 49.4093 17.3189 49.4807 17.2867 49.5427L16.9303 50.3788Z" fill="white"/>
<path d="M20.9666 41.9028C20.9519 41.9301 20.9317 41.9541 20.9073 41.9732C20.8829 41.9923 20.8547 42.0062 20.8247 42.0138C20.7946 42.0215 20.7633 42.0228 20.7327 42.0177C20.702 42.0127 20.6728 42.0013 20.6469 41.9843L16.3657 39.4696L15.512 40.9244C15.4978 40.9502 15.4784 40.9727 15.455 40.9906C15.4316 41.0085 15.4048 41.0213 15.3762 41.0283C15.3493 41.0352 15.3212 41.0366 15.2938 41.0325C15.2663 41.0284 15.24 41.0188 15.2163 41.0043L14.4953 40.5823C14.4684 40.5675 14.4447 40.5474 14.4257 40.5232C14.4068 40.4991 14.3929 40.4713 14.385 40.4416C14.3769 40.4132 14.3749 40.3835 14.379 40.3543C14.3832 40.3251 14.3934 40.2971 14.409 40.2721L16.8677 36.0821C16.8822 36.0546 16.9023 36.0305 16.9267 36.0112C16.951 35.9919 16.9791 35.9779 17.0092 35.9701C17.0393 35.9623 17.0707 35.9608 17.1013 35.9658C17.132 35.9708 17.1613 35.982 17.1874 35.999L17.9084 36.4226C17.934 36.4369 17.9563 36.4563 17.974 36.4797C17.9916 36.5031 18.0041 36.5299 18.0107 36.5585C18.0186 36.5882 18.0201 36.6192 18.0152 36.6495C18.0102 36.6798 17.9989 36.7087 17.9819 36.7343L17.1331 38.1827L21.419 40.6974C21.4461 40.7121 21.47 40.7322 21.4893 40.7564C21.5085 40.7805 21.5227 40.8083 21.5309 40.838C21.545 40.8987 21.5347 40.9624 21.5021 41.0155L20.9666 41.9028Z" fill="white"/>
<path d="M23.7039 37.5424C23.6853 37.5683 23.6614 37.5899 23.6339 37.6059C23.6063 37.6219 23.5757 37.6318 23.544 37.6351C23.5137 37.6393 23.4829 37.6372 23.4535 37.629C23.424 37.6207 23.3966 37.6065 23.3729 37.5872L18.577 33.9439C18.5526 33.9262 18.532 33.9038 18.5164 33.878C18.5009 33.8521 18.4907 33.8234 18.4865 33.7935C18.4824 33.7637 18.4843 33.7333 18.4921 33.7042C18.5 33.6751 18.5136 33.6479 18.5323 33.6242L19.1445 32.8248C19.1628 32.7987 19.1866 32.7768 19.2142 32.7608C19.2418 32.7448 19.2726 32.735 19.3044 32.7321C19.3349 32.7279 19.366 32.7299 19.3957 32.7382C19.4254 32.7464 19.4531 32.7607 19.4771 32.7801L21.1157 34.0254L21.7775 33.1525C22.2379 32.5472 22.7314 32.1806 23.2578 32.0527C23.7843 31.9248 24.3241 32.0703 24.8773 32.4891C25.1863 32.7168 25.4309 33.0209 25.5871 33.3716C25.7358 33.7204 25.7759 34.1059 25.7022 34.4778C25.6078 34.9223 25.4095 35.3381 25.1235 35.6912L23.7039 37.5424ZM23.5312 35.8511L24.1707 35.0166C24.2538 34.9198 24.3145 34.8058 24.3485 34.6829C24.3825 34.5599 24.3889 34.4309 24.3673 34.3052C24.3118 34.056 24.1653 33.8365 23.9565 33.6897C23.8624 33.6057 23.7518 33.5423 23.6317 33.5034C23.5117 33.4646 23.3849 33.4513 23.2594 33.4643C23.0155 33.5181 22.8021 33.6649 22.6648 33.8735L22.0253 34.708L23.5312 35.8511Z" fill="white"/>
<path d="M33.9353 24.2491C33.782 24.3725 33.5981 24.4521 33.4031 24.4792C33.2098 24.5066 33.0127 24.4834 32.831 24.4121C32.6481 24.3419 32.4875 24.2238 32.366 24.0701C32.241 23.9154 32.1613 23.7289 32.1359 23.5316C32.112 23.3391 32.1362 23.1436 32.2062 22.9627C32.2786 22.7785 32.3985 22.6169 32.5538 22.4942C32.709 22.3715 32.894 22.2922 33.0899 22.2644C33.2817 22.2416 33.4761 22.2646 33.6572 22.3315C33.8407 22.3998 34.0012 22.5183 34.1206 22.6735C34.2446 22.8275 34.3236 23.0127 34.3491 23.2088C34.3739 23.4008 34.352 23.596 34.2852 23.7777C34.2143 23.9641 34.0932 24.1273 33.9353 24.2491Z" fill="white"/>
</svg>
