<svg width="24" height="24" viewBox="0 0 24 24" fill="none" xmlns="http://www.w3.org/2000/svg">
<path d="M3.60156 12.0717C3.60156 11.9309 3.65545 11.7901 3.76213 11.6823L12.8834 2.56096C12.9914 2.45428 13.132 2.40039 13.2728 2.40039H13.7281C13.8689 2.40039 14.0097 2.45428 14.1175 2.56096L16.6396 5.083C16.7464 5.1909 16.8003 5.33158 16.8003 5.47239V5.92769C16.8003 6.06849 16.7464 6.20929 16.6397 6.31709L7.51838 15.4384C7.41048 15.5452 7.2698 15.5991 7.12899 15.5991H4.15152C3.84794 15.5991 3.60157 15.3527 3.60157 15.0491L3.60156 12.0717Z" fill="#2E2069"/>
<path d="M4.15151 19.9986C3.84793 19.9986 3.60156 19.7523 3.60156 19.4487V18.3488C3.60156 18.0452 3.84793 17.7988 4.15151 17.7988H20.65C20.9536 17.7988 21.2 18.0452 21.2 18.3488V19.4487C21.2 19.7523 20.9536 19.9986 20.65 19.9986H4.15151Z" fill="#2E2069"/>
</svg>
