<svg width="20" height="20" viewBox="0 0 20 20" fill="none" xmlns="http://www.w3.org/2000/svg">
<path d="M17.511 5.92125C17.511 6.39799 17.1246 6.78463 16.6476 6.78463H3.35165C2.87467 6.78463 2.48828 6.39799 2.48828 5.92125V5.11533C2.48828 4.63859 2.87467 4.25195 3.35165 4.25195H16.6476C17.1246 4.25195 17.511 4.63859 17.511 5.11533V5.92125Z" fill="#7C7B74"/>
<path d="M14.9206 10.4034C14.9206 10.8804 14.5342 11.2668 14.0572 11.2668H5.9415C5.46452 11.2668 5.07812 10.8804 5.07812 10.4034V9.59775C5.07812 9.12077 5.46452 8.73438 5.9415 8.73438H14.0572C14.5342 8.73438 14.9206 9.12077 14.9206 9.59775V10.4034Z" fill="#7C7B74"/>
<path d="M12.3302 14.8861C12.3302 15.3628 11.9438 15.7495 11.4668 15.7495H8.53134C8.05436 15.7495 7.66797 15.3628 7.66797 14.8861V14.0802C7.66797 13.6034 8.05436 13.2168 8.53134 13.2168H11.4668C11.9438 13.2168 12.3302 13.6034 12.3302 14.0802V14.8861Z" fill="#7C7B74"/>
</svg>
