<svg width="80" height="80" viewBox="0 0 80 80" fill="none" xmlns="http://www.w3.org/2000/svg">
<circle cx="40" cy="40" r="40" fill="#D038FF"/>
<circle cx="39.9992" cy="40.0011" r="28.5714" fill="#571D69"/>
<path d="M40.9264 20.3649L41.222 19.3649H40.0567L39.7612 20.3649H40.9264ZM40.158 23.002L40.6393 21.3649H39.4741L38.9928 23.002H37.5911L38.0724 21.3649H37L37.2871 20.3649H38.3595L38.6466 19.3649H37.5742L37.8697 18.3649H38.9421L39.339 17.002H40.7491L40.3438 18.3649H41.5175L41.9144 17.002H43.3245L42.9192 18.3649H44L43.7045 19.3649H42.6321L42.3366 20.3649H43.4174L43.1218 21.3649H42.041L41.5597 23.002H40.158Z" fill="#D038FF"/>
<path d="M40.608 52.706H39.072C37.1947 52.706 35.488 52.578 33.952 52.322C32.416 52.0873 31.136 51.778 30.112 51.394C29.088 51.01 28.192 50.5513 27.424 50.018C26.656 49.4846 26.0587 48.9513 25.632 48.418C25.2053 47.8846 24.864 47.3086 24.608 46.69C24.352 46.0713 24.1813 45.538 24.096 45.09C24.032 44.642 24 44.194 24 43.746V43.458H33.376C33.4187 43.6926 33.4507 43.8846 33.472 44.034C33.5147 44.162 33.664 44.4286 33.92 44.834C34.1973 45.218 34.5387 45.5273 34.944 45.762C35.3493 45.9966 35.968 46.2206 36.8 46.434C37.632 46.626 38.6133 46.722 39.744 46.722C40.896 46.722 41.888 46.6686 42.72 46.562C43.552 46.4553 44.1813 46.3273 44.608 46.178C45.056 46.0286 45.408 45.8473 45.664 45.634C45.92 45.3993 46.08 45.1966 46.144 45.026C46.208 44.8553 46.24 44.6526 46.24 44.418C46.24 43.3086 45.2587 42.754 43.296 42.754H35.328V37.058H43.072C44.864 37.058 45.76 36.5993 45.76 35.682V35.65C45.76 35.3086 45.6533 35.0206 45.44 34.786C45.248 34.5513 44.6613 34.338 43.68 34.146C42.6987 33.9326 41.2907 33.826 39.456 33.826C38.3467 33.826 37.3867 33.9006 36.576 34.05C35.7653 34.1993 35.168 34.37 34.784 34.562C34.4213 34.7326 34.1227 34.9673 33.888 35.266C33.6747 35.5646 33.5467 35.7673 33.504 35.874C33.4827 35.9806 33.4613 36.13 33.44 36.322H24.128V36.002C24.128 35.5966 24.16 35.202 24.224 34.818C24.288 34.4126 24.4373 33.9326 24.672 33.378C24.9067 32.8233 25.2267 32.3113 25.632 31.842C26.0373 31.3726 26.6027 30.8926 27.328 30.402C28.0747 29.9113 28.9387 29.4953 29.92 29.154C30.9227 28.8126 32.1707 28.5353 33.664 28.322C35.1787 28.1086 36.864 28.002 38.72 28.002H40.096C42.72 28.002 44.992 28.1406 46.912 28.418C48.832 28.674 50.304 29.0046 51.328 29.41C52.3733 29.794 53.1947 30.2846 53.792 30.882C54.3893 31.458 54.7627 31.9913 54.912 32.482C55.0827 32.9726 55.168 33.5273 55.168 34.146V34.338C55.168 35.426 54.7413 36.3326 53.888 37.058C53.056 37.762 52.0853 38.21 50.976 38.402C52.3627 38.7006 53.5467 39.3193 54.528 40.258C55.5307 41.1966 56.032 42.5193 56.032 44.226V44.45C56.032 49.954 50.8907 52.706 40.608 52.706Z" fill="#D038FF"/>
</svg>
