<svg width="80" height="80" viewBox="0 0 80 80" fill="none" xmlns="http://www.w3.org/2000/svg">
<circle cx="40" cy="40" r="40" fill="#FFEC45"/>
<circle cx="39.9992" cy="40.0011" r="28.5714" fill="#69611F"/>
<path d="M35.76 37.73H30V32.77C33.84 32.5353 36.3573 30.946 37.552 28.002H44.784V51.81H35.76V37.73Z" fill="#FFEC45"/>
<path d="M41.9264 20.3649L42.222 19.3649H41.0567L40.7612 20.3649H41.9264ZM41.158 23.002L41.6393 21.3649H40.4741L39.9928 23.002H38.5911L39.0724 21.3649H38L38.2871 20.3649H39.3595L39.6466 19.3649H38.5742L38.8697 18.3649H39.9421L40.339 17.002H41.7491L41.3438 18.3649H42.5175L42.9144 17.002H44.3245L43.9192 18.3649H45L44.7045 19.3649H43.6321L43.3366 20.3649H44.4174L44.1218 21.3649H43.041L42.5597 23.002H41.158Z" fill="#FFEC45"/>
</svg>
