<svg width="24" height="24" viewBox="0 0 24 24" fill="none" xmlns="http://www.w3.org/2000/svg">
<path d="M19.6803 11.0999H12.8832V4.30278C12.8832 4.13449 12.7486 4 12.5804 4H11.3858C11.2175 4 11.083 4.13461 11.083 4.30278V11.0999L4.30278 11.1C4.13449 11.1 4 11.2346 4 11.4028V12.5974C4 12.7656 4.13461 12.9001 4.30278 12.9001H11.0999V19.6972C11.0999 19.8655 11.2345 20 11.4026 20H12.5972C12.7655 20 12.9 19.8654 12.9 19.6972L12.9001 12.8833H19.6972C19.8655 12.8833 20 12.7487 20 12.5805V11.3859C19.9833 11.2345 19.8487 11.0999 19.6805 11.0999L19.6803 11.0999Z" fill="#7C7B74" stroke="#7C7B74"/>
</svg>
