<svg width="21" height="20" viewBox="0 0 21 20" fill="none" xmlns="http://www.w3.org/2000/svg">
<path d="M18.8327 16.4476L14.3943 12.0093C15.0927 10.9544 15.499 9.69196 15.499 8.33295C15.499 4.65036 12.5143 1.66602 8.83253 1.66602C5.15044 1.66613 2.16602 4.65066 2.16602 8.33324C2.16602 12.0146 5.15074 15.0002 8.83253 15.0002C10.1911 15.0002 11.4551 14.5923 12.509 13.8944L16.9474 18.3327L18.8327 16.4476ZM4.05492 8.33384C4.05492 5.69504 6.1942 3.55686 8.83262 3.55686C11.4715 3.55686 13.6106 5.69516 13.6106 8.33384C13.6106 10.9726 11.4713 13.112 8.83262 13.112C6.19432 13.112 4.05492 10.9728 4.05492 8.33384Z" fill="#7C7B74"/>
</svg>
