<svg width="184" height="184" viewBox="0 0 184 184" fill="none" xmlns="http://www.w3.org/2000/svg">
<g clip-path="url(#clip0_5901_9514)">
<path d="M12.1212 157.358L34.9908 165.203L50.9522 150.62L106.861 159.543L117.802 174.224L144.081 182.614L146.747 165.909L161.402 159.509L162.303 125.392L174.189 79.3955L156.864 60.899L111.549 49.122L140.817 30.021L121.477 15.3978L92.4952 34.894L78.518 32.6633L60.019 8.3858L35.1362 13.1542L54.2516 44.5219L34.4791 41.3661L16.893 50.7951L16.2614 74.4664L8.20884 124.921L12.1144 139.877L12.1212 157.358Z" fill="#6E45FF"/>
<path d="M149.596 65.0398L95.1641 56.3524C95.1971 54.3223 94.618 52.4856 93.7562 50.6037L114.796 35.3555C116.112 34.4022 116.383 32.7012 115.43 31.3868C114.476 30.0715 112.775 29.8 111.461 30.7534L90.4209 46.0017C88.3794 44.2226 85.6799 42.9196 82.8446 42.4671C79.1588 41.8788 75.5306 42.753 72.5719 44.8973L56.1325 22.214C55.1792 20.8986 53.4782 20.6271 52.1639 21.5806C50.8485 22.5338 50.577 24.2348 51.5305 25.5492L67.9698 48.2325C68.2084 48.5616 68.2084 48.5616 68.4912 48.6068C67.7435 49.6506 67.2788 50.7387 66.8139 51.8277L43.5668 48.1174C35.3456 46.8053 27.4558 52.5233 26.1437 60.7444L15.8275 125.382C14.832 131.619 17.9411 137.638 23.2496 140.812L21.3946 152.435C21.1231 154.136 22.0764 155.451 23.7773 155.723L34.55 157.442C35.6843 157.623 36.9081 157.237 37.3729 156.148L44.3309 145.34L118.89 157.239L122.138 169.677C122.524 170.902 123.284 171.604 124.418 171.785L135.191 173.504C136.892 173.776 138.207 172.823 138.479 171.122L140.334 159.499C146.365 158.136 151.195 153.383 152.19 147.145L162.506 82.508C163.534 74.2417 157.816 66.3518 149.595 65.0397L149.596 65.0398ZM81.9377 48.1364C85.9064 48.7698 88.6183 51.8191 89.2087 55.4019L72.4826 52.7324C74.4437 49.5568 78.2529 47.5483 81.9377 48.1364ZM33.4695 151.456L27.516 150.506L28.6924 143.135L37.764 144.583L33.4695 151.456ZM132.977 167.338L127.024 166.387L125.082 158.519L134.154 159.967L132.977 167.338ZM146.236 146.196C145.422 151.299 140.491 154.872 135.388 154.058L29.3579 137.135C24.2549 136.321 20.6811 131.39 21.4956 126.287L31.8118 61.6495C32.6262 56.5466 37.5574 52.9728 42.6603 53.7873L148.688 70.7094C153.791 71.5239 157.365 76.455 156.55 81.558L146.236 146.196Z" fill="#130401"/>
<path d="M123.462 72.3487L41.1813 59.2165C39.479 58.9449 38.1621 59.9021 37.8896 61.6093L27.2632 128.19C26.9907 129.897 27.9442 131.217 29.6466 131.489L111.925 144.62C113.628 144.892 114.945 143.935 115.217 142.228L125.843 75.6469C126.07 74.2245 125.163 72.6212 123.461 72.3495L123.462 72.3487ZM109.999 138.477L33.3934 126.25L43.1117 65.3594L119.717 77.5857L109.999 138.477Z" fill="#130401"/>
<path d="M138.419 140.459L125.763 138.44C124.038 138.164 122.691 139.208 122.397 141.049C122.103 142.889 123.058 144.3 124.784 144.576L137.44 146.596C139.165 146.871 140.512 145.827 140.806 143.987C141.1 142.146 140.145 140.735 138.419 140.459Z" fill="#130401"/>
<path d="M140.271 128.868L127.615 126.848C125.889 126.572 124.564 127.48 124.303 129.116C124.042 130.752 125.019 132.027 126.744 132.302L139.4 134.322C141.126 134.598 142.451 133.69 142.712 132.054C142.973 130.418 141.996 129.143 140.271 128.868Z" fill="#130401"/>
<path d="M138.109 121.479L139.617 112.035C139.883 110.369 138.969 109.083 137.333 108.822C135.697 108.561 134.428 109.498 134.162 111.165L132.655 120.609C132.389 122.275 133.303 123.561 134.939 123.822C136.302 124.039 137.843 123.146 138.109 121.479Z" fill="#130401"/>
<path d="M141.903 80.1858C135.683 79.1931 129.5 83.4247 128.463 89.9268C127.47 96.1467 131.701 102.33 138.204 103.367C144.706 104.405 150.606 100.129 151.644 93.6266C152.4 87.0795 148.123 81.1786 141.903 80.1858ZM139.151 97.4315C136.041 96.9352 133.62 93.9396 134.162 90.5471C134.658 87.4376 137.653 85.0162 141.046 85.5577C144.155 86.054 146.577 89.0496 146.035 92.4421C145.211 95.7895 142.26 97.9278 139.151 97.4315Z" fill="#130401"/>
</g>
<defs>
<clipPath id="clip0_5901_9514">
<rect width="184" height="184" fill="white"/>
</clipPath>
</defs>
</svg>
