<svg width="24" height="24" viewBox="0 0 24 24" fill="none" xmlns="http://www.w3.org/2000/svg">
<path d="M8.66064 19.5C15.4531 19.5 19.1683 13.7286 19.1683 8.72358C19.1683 8.55965 19.1683 8.39647 19.1575 8.23401C19.8803 7.69786 20.5042 7.034 21 6.27352C20.326 6.57997 19.611 6.78084 18.8789 6.86942C19.6499 6.39614 20.2269 5.65164 20.5025 4.77454C19.7776 5.21575 18.9845 5.52667 18.1574 5.69387C17.6006 5.08666 16.8642 4.68458 16.0621 4.54985C15.2601 4.41513 14.4371 4.55526 13.7205 4.94857C13.0039 5.34188 12.4337 5.96645 12.0981 6.72561C11.7624 7.48477 11.6802 8.33621 11.8639 9.14817C10.3957 9.07263 8.95932 8.6813 7.64809 7.99957C6.33686 7.31784 5.18007 6.36095 4.2528 5.19101C3.78055 6.0248 3.6359 7.01184 3.84832 7.95116C4.06075 8.89048 4.61426 9.71145 5.39616 10.2469C4.80842 10.2293 4.23349 10.0667 3.72 9.77287V9.82087C3.72023 10.6953 4.01539 11.5428 4.5554 12.2195C5.09542 12.8962 5.84705 13.3605 6.6828 13.5336C6.13911 13.6857 5.56866 13.7079 5.01528 13.5986C5.25136 14.3511 5.71082 15.0091 6.32943 15.4807C6.94804 15.9523 7.69487 16.2139 8.46552 16.2288C7.69983 16.8461 6.82299 17.3024 5.88516 17.5718C4.94733 17.8412 3.96691 17.9183 3 17.7987C4.68887 18.9102 6.65394 19.4997 8.66064 19.497" fill="#4285F4"/>
</svg>
